<?xml version="1.0" standalone="yes"?>

<svg version="1.1" viewBox="0.0 0.0 954.0 426.0" fill="none" stroke="none" stroke-linecap="square" stroke-miterlimit="10" xmlns="http://www.w3.org/2000/svg" xmlns:xlink="http://www.w3.org/1999/xlink"><path d="M177.33595 184.87138L406.69028 184.87138" fill-rule="nonzero" stroke="#000000" stroke-width="2.0" stroke-linejoin="round" stroke-linecap="butt"></path><path d="M560.92914 184.87138L790.28345 184.87138" fill-rule="nonzero" stroke="#000000" stroke-width="2.0" stroke-linejoin="round" stroke-linecap="butt"></path><path d="M178.38583 184.61154L402.73227 60.800526" fill-rule="nonzero" stroke="#000000" stroke-width="2.0" stroke-linejoin="round" stroke-linecap="butt"></path><path d="M180.48032 186.70604L413.96063 305.1942" fill-rule="nonzero" stroke="#000000" stroke-width="2.0" stroke-linejoin="round" stroke-linecap="butt"></path><path d="M532.3011 61.968975L765.90735 185.65402" fill-rule="nonzero" stroke="#000000" stroke-width="2.0" stroke-linejoin="round" stroke-linecap="butt"></path><path d="M765.9055 185.6588L542.7559 302.2257" fill-rule="nonzero" stroke="#000000" stroke-width="2.0" stroke-linejoin="round" stroke-linecap="butt"></path><path d="M18.154856 184.87138L18.154856 184.87138C18.154856 159.71852 65.196686 139.32808 123.22572 139.32808L123.22572 139.32808C181.25476 139.32808 228.29659 159.71852 228.29659 184.87138L228.29659 184.87138C228.29659 210.02426 181.25476 230.4147 123.22572 230.4147L123.22572 230.4147C65.196686 230.4147 18.154856 210.02426 18.154856 184.87138Z" fill-rule="nonzero" fill="#ffffff" stroke="#000000" stroke-width="2.0" stroke-linejoin="round" stroke-linecap="butt"></path><path d="M366.92914 62.45669L366.92914 62.45669C366.92914 37.303818 413.97098 16.913385 472.0 16.913385L472.0 16.913385C530.02905 16.913385 577.07086 37.303818 577.07086 62.45669L577.07086 62.45669C577.07086 87.609566 530.02905 108.0 472.0 108.0L472.0 108.0C413.97098 108.0 366.92914 87.609566 366.92914 62.45669Z" fill-rule="nonzero" fill="#ffffff" stroke="#000000" stroke-width="2.0" stroke-linejoin="round" stroke-linecap="butt"></path><path d="M708.59845 184.87138L708.59845 184.87138C708.59845 159.71852 755.64026 139.32808 813.6693 139.32808L813.6693 139.32808C871.6983 139.32808 918.7402 159.71852 918.7402 184.87138L918.7402 184.87138C918.7402 210.02426 871.6983 230.4147 813.6693 230.4147L813.6693 230.4147C755.64026 230.4147 708.59845 210.02426 708.59845 184.87138Z" fill-rule="nonzero" fill="#ffffff" stroke="#000000" stroke-width="2.0" stroke-linejoin="round" stroke-linecap="butt"></path><path d="M366.92914 184.87138L366.92914 184.87138C366.92914 159.71852 413.97098 139.32808 472.0 139.32808L472.0 139.32808C530.02905 139.32808 577.07086 159.71852 577.07086 184.87138L577.07086 184.87138C577.07086 210.02426 530.02905 230.4147 472.0 230.4147L472.0 230.4147C413.97098 230.4147 366.92914 210.02426 366.92914 184.87138Z" fill-rule="nonzero" fill="#ffffff" stroke="#000000" stroke-width="2.0" stroke-linejoin="round" stroke-linecap="butt"></path><path d="M366.92914 303.30185L366.92914 303.30185C366.92914 278.14896 413.97098 257.75854 472.0 257.75854L472.0 257.75854C530.02905 257.75854 577.07086 278.14896 577.07086 303.30185L577.07086 303.30185C577.07086 328.4547 530.02905 348.84515 472.0 348.84515L472.0 348.84515C413.97098 348.84515 366.92914 328.4547 366.92914 303.30185Z" fill-rule="nonzero" fill="#ffffff" stroke="#000000" stroke-width="2.0" stroke-linejoin="round" stroke-linecap="butt"></path><path d="M61.453304 408.17523L72.45331 379.5346L76.53143 379.5346L88.25018 408.17523L83.93768 408.17523L80.59393 399.50336L68.62518 399.50336L65.48456 408.17523L61.453304 408.17523ZM69.71893 396.4096L79.42206 396.4096L76.43768 388.48773Q75.07831 384.87836 74.40643 382.55023Q73.85956 385.30023 72.85956 388.01898L69.71893 396.4096ZM90.82831 408.17523L90.82831 387.42523L93.98456 387.42523L93.98456 390.37836Q96.28143 386.95648 100.59393 386.95648Q102.46893 386.95648 104.039246 387.63617Q105.60956 388.31586 106.39081 389.4096Q107.17206 390.50336 107.48456 392.00336Q107.68768 392.9721 107.68768 395.42523L107.68768 408.17523L104.17206 408.17523L104.17206 395.55023Q104.17206 393.4096 103.757996 392.3471Q103.34393 391.2846 102.29706 390.64398Q101.25018 390.00336 99.84393 390.00336Q97.60956 390.00336 95.976746 391.43304Q94.34393 392.86273 94.34393 396.8471L94.34393 408.17523L90.82831 408.17523ZM138.39081 401.48773L142.01581 401.94086Q141.15643 405.12836 138.83612 406.88617Q136.51581 408.64398 132.89081 408.64398Q128.34393 408.64398 125.67987 405.8393Q123.01581 403.0346 123.01581 397.9721Q123.01581 392.73773 125.71112 389.8471Q128.40643 386.95648 132.70331 386.95648Q136.85956 386.95648 139.50018 389.79242Q142.14081 392.62836 142.14081 397.76898Q142.14081 398.08148 142.10956 398.70648L126.64081 398.70648Q126.84393 402.11273 128.57831 403.93304Q130.31268 405.75336 132.92206 405.75336Q134.84393 405.75336 136.21112 404.73773Q137.57831 403.7221 138.39081 401.48773ZM126.84393 395.81586L138.42206 395.81586Q138.18768 393.19086 137.09393 391.87836Q135.42206 389.8471 132.73456 389.8471Q130.31268 389.8471 128.66425 391.4721Q127.01581 393.0971 126.84393 395.81586ZM146.39081 408.17523L146.39081 387.42523L149.56268 387.42523L149.56268 390.58148Q150.76581 388.36273 151.79706 387.6596Q152.82831 386.95648 154.04706 386.95648Q155.82831 386.95648 157.67206 388.0971L156.45331 391.36273Q155.17206 390.5971 153.87518 390.5971Q152.71893 390.5971 151.80487 391.29242Q150.89081 391.98773 150.50018 393.20648Q149.90643 395.08148 149.90643 397.31586L149.90643 408.17523L146.39081 408.17523ZM159.71893 408.17523L159.71893 387.42523L162.89081 387.42523L162.89081 390.58148Q164.09393 388.36273 165.12518 387.6596Q166.15643 386.95648 167.37518 386.95648Q169.15643 386.95648 171.00018 388.0971L169.78143 391.36273Q168.50018 390.5971 167.20331 390.5971Q166.04706 390.5971 165.133 391.29242Q164.21893 391.98773 163.82831 393.20648Q163.23456 395.08148 163.23456 397.31586L163.23456 408.17523L159.71893 408.17523ZM171.76581 397.80023Q171.76581 392.0346 174.96893 389.26898Q177.64081 386.95648 181.50018 386.95648Q185.76581 386.95648 188.48456 389.76117Q191.20331 392.56586 191.20331 397.50336Q191.20331 401.51898 190.00018 403.80804Q188.79706 406.0971 186.50018 407.37054Q184.20331 408.64398 181.50018 408.64398Q177.14081 408.64398 174.45331 405.8471Q171.76581 403.05023 171.76581 397.80023ZM175.37518 397.80023Q175.37518 401.7846 177.11737 403.76898Q178.85956 405.75336 181.50018 405.75336Q184.10956 405.75336 185.85175 403.76117Q187.59393 401.76898 187.59393 397.69086Q187.59393 393.83148 185.84393 391.85492Q184.09393 389.87836 181.50018 389.87836Q178.85956 389.87836 177.11737 391.8471Q175.37518 393.81586 175.37518 397.80023ZM195.28143 408.17523L195.28143 387.42523L198.45331 387.42523L198.45331 390.58148Q199.65643 388.36273 200.68768 387.6596Q201.71893 386.95648 202.93768 386.95648Q204.71893 386.95648 206.56268 388.0971L205.34393 391.36273Q204.06268 390.5971 202.76581 390.5971Q201.60956 390.5971 200.6955 391.29242Q199.78143 391.98773 199.39081 393.20648Q198.79706 395.08148 198.79706 397.31586L198.79706 408.17523L195.28143 408.17523ZM218.45331 397.80023Q218.45331 392.0346 221.65643 389.26898Q224.32831 386.95648 228.18768 386.95648Q232.45331 386.95648 235.17206 389.76117Q237.89081 392.56586 237.89081 397.50336Q237.89081 401.51898 236.68768 403.80804Q235.48456 406.0971 233.18768 407.37054Q230.89081 408.64398 228.18768 408.64398Q223.82831 408.64398 221.14081 405.8471Q218.45331 403.05023 218.45331 397.80023ZM222.06268 397.80023Q222.06268 401.7846 223.80487 403.76898Q225.54706 405.75336 228.18768 405.75336Q230.79706 405.75336 232.53925 403.76117Q234.28143 401.76898 234.28143 397.69086Q234.28143 393.83148 232.53143 391.85492Q230.78143 389.87836 228.18768 389.87836Q225.54706 389.87836 223.80487 391.8471Q222.06268 393.81586 222.06268 397.80023ZM255.53143 400.58148L258.98456 401.01898Q258.42206 404.5971 256.08612 406.62054Q253.75018 408.64398 250.35956 408.64398Q246.09393 408.64398 243.508 405.86273Q240.92206 403.08148 240.92206 397.87836Q240.92206 394.51898 242.03925 392.00336Q243.15643 389.48773 245.42987 388.2221Q247.70331 386.95648 250.37518 386.95648Q253.75018 386.95648 255.89862 388.66742Q258.04706 390.37836 258.65643 393.51898L255.23456 394.05023Q254.75018 391.95648 253.508 390.9018Q252.26581 389.8471 250.51581 389.8471Q247.85956 389.8471 246.1955 391.75336Q244.53143 393.6596 244.53143 397.7846Q244.53143 401.95648 246.133 403.85492Q247.73456 405.75336 250.31268 405.75336Q252.39081 405.75336 253.77362 404.47992Q255.15643 403.20648 255.53143 400.58148ZM275.53143 400.58148L278.98456 401.01898Q278.42206 404.5971 276.08612 406.62054Q273.75018 408.64398 270.35956 408.64398Q266.09393 408.64398 263.508 405.86273Q260.92206 403.08148 260.92206 397.87836Q260.92206 394.51898 262.03925 392.00336Q263.15643 389.48773 265.42987 388.2221Q267.7033 386.95648 270.37518 386.95648Q273.75018 386.95648 275.89862 388.66742Q278.04706 390.37836 278.65643 393.51898L275.23456 394.05023Q274.75018 391.95648 273.508 390.9018Q272.2658 389.8471 270.5158 389.8471Q267.85956 389.8471 266.1955 391.75336Q264.53143 393.6596 264.53143 397.7846Q264.53143 401.95648 266.133 403.85492Q267.73456 405.75336 270.31268 405.75336Q272.3908 405.75336 273.77362 404.47992Q275.15643 403.20648 275.53143 400.58148ZM295.59393 408.17523L295.59393 405.12836Q293.17206 408.64398 289.0158 408.64398Q287.17206 408.64398 285.5783 407.94086Q283.98456 407.23773 283.21893 406.17523Q282.4533 405.11273 282.1408 403.56586Q281.92206 402.5346 281.92206 400.2846L281.92206 387.42523L285.43768 387.42523L285.43768 398.94086Q285.43768 401.69086 285.65643 402.64398Q285.98456 404.0346 287.05487 404.82367Q288.12518 405.61273 289.71893 405.61273Q291.29706 405.61273 292.67987 404.80023Q294.06268 403.98773 294.6408 402.5971Q295.21893 401.20648 295.21893 398.55023L295.21893 387.42523L298.73456 387.42523L298.73456 408.17523L295.59393 408.17523ZM304.2033 408.17523L304.2033 387.42523L307.37518 387.42523L307.37518 390.58148Q308.5783 388.36273 309.60956 387.6596Q310.6408 386.95648 311.85956 386.95648Q313.6408 386.95648 315.48456 388.0971L314.2658 391.36273Q312.98456 390.5971 311.68768 390.5971Q310.53143 390.5971 309.61737 391.29242Q308.7033 391.98773 308.31268 393.20648Q307.71893 395.08148 307.71893 397.31586L307.71893 408.17523L304.2033 408.17523ZM331.78143 401.48773L335.40643 401.94086Q334.54706 405.12836 332.22675 406.88617Q329.90643 408.64398 326.28143 408.64398Q321.73456 408.64398 319.0705 405.8393Q316.40643 403.0346 316.40643 397.9721Q316.40643 392.73773 319.10175 389.8471Q321.79706 386.95648 326.09393 386.95648Q330.25018 386.95648 332.8908 389.79242Q335.53143 392.62836 335.53143 397.76898Q335.53143 398.08148 335.50018 398.70648L320.03143 398.70648Q320.23456 402.11273 321.96893 403.93304Q323.7033 405.75336 326.31268 405.75336Q328.23456 405.75336 329.60175 404.73773Q330.96893 403.7221 331.78143 401.48773ZM320.23456 395.81586L331.81268 395.81586Q331.5783 393.19086 330.48456 391.87836Q328.81268 389.8471 326.12518 389.8471Q323.7033 389.8471 322.05487 391.4721Q320.40643 393.0971 320.23456 395.81586ZM353.2658 408.17523L353.2658 405.55023Q351.29706 408.64398 347.46893 408.64398Q344.98456 408.64398 342.90643 407.2768Q340.8283 405.9096 339.68768 403.45648Q338.54706 401.00336 338.54706 397.81586Q338.54706 394.7221 339.5783 392.19086Q340.60956 389.6596 342.67987 388.30804Q344.75018 386.95648 347.31268 386.95648Q349.18768 386.95648 350.64862 387.75336Q352.10956 388.55023 353.03143 389.81586L353.03143 379.5346L356.53143 379.5346L356.53143 408.17523L353.2658 408.17523ZM342.15643 397.81586Q342.15643 401.80023 343.83612 403.7768Q345.5158 405.75336 347.79706 405.75336Q350.10956 405.75336 351.71893 403.87054Q353.3283 401.98773 353.3283 398.11273Q353.3283 393.86273 351.68768 391.87054Q350.04706 389.87836 347.6408 389.87836Q345.29706 389.87836 343.72675 391.79242Q342.15643 393.70648 342.15643 397.81586ZM377.00018 408.17523L370.65643 387.42523L374.28143 387.42523L377.5783 399.4096L378.81268 403.86273Q378.8908 403.51898 379.8908 399.58148L383.18768 387.42523L386.79706 387.42523L389.90643 399.45648L390.93768 403.42523L392.1408 399.42523L395.68768 387.42523L399.10956 387.42523L392.62518 408.17523L388.96893 408.17523L385.67206 395.75336L384.87518 392.2221L380.67206 408.17523L377.00018 408.17523ZM402.06268 408.17523L402.06268 379.5346L405.5783 379.5346L405.5783 389.81586Q408.03143 386.95648 411.78143 386.95648Q414.09393 386.95648 415.78925 387.87054Q417.48456 388.7846 418.21893 390.38617Q418.9533 391.98773 418.9533 395.0346L418.9533 408.17523L415.43768 408.17523L415.43768 395.0346Q415.43768 392.39398 414.29706 391.19086Q413.15643 389.98773 411.06268 389.98773Q409.50018 389.98773 408.12518 390.80023Q406.75018 391.61273 406.16425 392.99554Q405.5783 394.37836 405.5783 396.83148L405.5783 408.17523L402.06268 408.17523ZM424.3283 383.58148L424.3283 379.5346L427.84393 379.5346L427.84393 383.58148L424.3283 383.58148ZM424.3283 408.17523L424.3283 387.42523L427.84393 387.42523L427.84393 408.17523L424.3283 408.17523ZM433.12518 408.17523L433.12518 379.5346L436.6408 379.5346L436.6408 408.17523L433.12518 408.17523ZM456.28143 401.48773L459.90643 401.94086Q459.04706 405.12836 456.72675 406.88617Q454.40643 408.64398 450.78143 408.64398Q446.23456 408.64398 443.5705 405.8393Q440.90643 403.0346 440.90643 397.9721Q440.90643 392.73773 443.60175 389.8471Q446.29706 386.95648 450.59393 386.95648Q454.75018 386.95648 457.3908 389.79242Q460.03143 392.62836 460.03143 397.76898Q460.03143 398.08148 460.00018 398.70648L444.53143 398.70648Q444.73456 402.11273 446.46893 403.93304Q448.2033 405.75336 450.81268 405.75336Q452.73456 405.75336 454.10175 404.73773Q455.46893 403.7221 456.28143 401.48773ZM444.73456 395.81586L456.31268 395.81586Q456.0783 393.19086 454.98456 391.87836Q453.31268 389.8471 450.62518 389.8471Q448.2033 389.8471 446.55487 391.4721Q444.90643 393.0971 444.73456 395.81586ZM475.43768 416.12836L475.43768 387.42523L478.6408 387.42523L478.6408 390.12836Q479.7658 388.55023 481.1955 387.75336Q482.62518 386.95648 484.65643 386.95648Q487.31268 386.95648 489.34393 388.32367Q491.37518 389.69086 492.40643 392.18304Q493.43768 394.67523 493.43768 397.64398Q493.43768 400.83148 492.29706 403.37836Q491.15643 405.92523 488.97675 407.2846Q486.79706 408.64398 484.40643 408.64398Q482.6408 408.64398 481.24237 407.9018Q479.84393 407.1596 478.9533 406.01898L478.9533 416.12836L475.43768 416.12836ZM478.62518 397.92523Q478.62518 401.92523 480.24237 403.8393Q481.85956 405.75336 484.17206 405.75336Q486.5158 405.75336 488.17987 403.76898Q489.84393 401.7846 489.84393 397.62836Q489.84393 393.6596 488.21893 391.69086Q486.59393 389.7221 484.3283 389.7221Q482.0783 389.7221 480.35175 391.81586Q478.62518 393.9096 478.62518 397.92523ZM497.6408 408.17523L497.6408 387.42523L500.81268 387.42523L500.81268 390.58148Q502.0158 388.36273 503.04706 387.6596Q504.0783 386.95648 505.29706 386.95648Q507.0783 386.95648 508.92206 388.0971L507.7033 391.36273Q506.42206 390.5971 505.12518 390.5971Q503.96893 390.5971 503.05487 391.29242Q502.1408 391.98773 501.75018 393.20648Q501.15643 395.08148 501.15643 397.31586L501.15643 408.17523L497.6408 408.17523ZM509.7033 397.80023Q509.7033 392.0346 512.90643 389.26898Q515.5783 386.95648 519.4377 386.95648Q523.7033 386.95648 526.42206 389.76117Q529.1408 392.56586 529.1408 397.50336Q529.1408 401.51898 527.9377 403.80804Q526.73456 406.0971 524.4377 407.37054Q522.1408 408.64398 519.4377 408.64398Q515.0783 408.64398 512.3908 405.8471Q509.7033 403.05023 509.7033 397.80023ZM513.3127 397.80023Q513.3127 401.7846 515.0549 403.76898Q516.79706 405.75336 519.4377 405.75336Q522.04706 405.75336 523.78925 403.76117Q525.53143 401.76898 525.53143 397.69086Q525.53143 393.83148 523.78143 391.85492Q522.03143 389.87836 519.4377 389.87836Q516.79706 389.87836 515.0549 391.8471Q513.3127 393.81586 513.3127 397.80023ZM546.78143 400.58148L550.23456 401.01898Q549.67206 404.5971 547.3361 406.62054Q545.0002 408.64398 541.60956 408.64398Q537.34393 408.64398 534.758 405.86273Q532.17206 403.08148 532.17206 397.87836Q532.17206 394.51898 533.28925 392.00336Q534.40643 389.48773 536.6799 388.2221Q538.9533 386.95648 541.6252 386.95648Q545.0002 386.95648 547.1486 388.66742Q549.29706 390.37836 549.90643 393.51898L546.48456 394.05023Q546.0002 391.95648 544.758 390.9018Q543.5158 389.8471 541.7658 389.8471Q539.10956 389.8471 537.4455 391.75336Q535.78143 393.6596 535.78143 397.7846Q535.78143 401.95648 537.383 403.85492Q538.98456 405.75336 541.5627 405.75336Q543.6408 405.75336 545.0236 404.47992Q546.40643 403.20648 546.78143 400.58148ZM567.4533 401.48773L571.0783 401.94086Q570.21893 405.12836 567.8986 406.88617Q565.5783 408.64398 561.9533 408.64398Q557.40643 408.64398 554.7424 405.8393Q552.0783 403.0346 552.0783 397.9721Q552.0783 392.73773 554.7736 389.8471Q557.46893 386.95648 561.7658 386.95648Q565.92206 386.95648 568.5627 389.79242Q571.2033 392.62836 571.2033 397.76898Q571.2033 398.08148 571.17206 398.70648L555.7033 398.70648Q555.90643 402.11273 557.6408 403.93304Q559.3752 405.75336 561.98456 405.75336Q563.90643 405.75336 565.2736 404.73773Q566.6408 403.7221 567.4533 401.48773ZM555.90643 395.81586L567.48456 395.81586Q567.2502 393.19086 566.15643 391.87836Q564.48456 389.8471 561.79706 389.8471Q559.3752 389.8471 557.72675 391.4721Q556.0783 393.0971 555.90643 395.81586ZM574.09393 401.98773L577.5627 401.44086Q577.85956 403.51898 579.1955 404.63617Q580.53143 405.75336 582.9377 405.75336Q585.35956 405.75336 586.53143 404.76898Q587.7033 403.7846 587.7033 402.45648Q587.7033 401.25336 586.67206 400.58148Q585.9533 400.11273 583.0783 399.37836Q579.2033 398.4096 577.7111 397.69867Q576.21893 396.98773 575.4455 395.7221Q574.67206 394.45648 574.67206 392.94086Q574.67206 391.55023 575.3127 390.37054Q575.9533 389.19086 577.04706 388.4096Q577.85956 387.80023 579.2736 387.37836Q580.6877 386.95648 582.3127 386.95648Q584.7502 386.95648 586.60175 387.6596Q588.4533 388.36273 589.3283 389.56586Q590.2033 390.76898 590.53143 392.7846L587.09393 393.25336Q586.85956 391.64398 585.7424 390.74554Q584.6252 389.8471 582.5627 389.8471Q580.1408 389.8471 579.10956 390.6518Q578.0783 391.45648 578.0783 392.5346Q578.0783 393.20648 578.5002 393.75336Q578.9377 394.33148 579.85956 394.69086Q580.3752 394.89398 582.9533 395.5971Q586.6877 396.5971 588.16425 397.22992Q589.6408 397.86273 590.47675 399.07367Q591.3127 400.2846 591.3127 402.08148Q591.3127 403.83148 590.28925 405.38617Q589.2658 406.94086 587.3361 407.79242Q585.40643 408.64398 582.9533 408.64398Q578.92206 408.64398 576.79706 406.9643Q574.67206 405.2846 574.09393 401.98773ZM594.09393 401.98773L597.5627 401.44086Q597.85956 403.51898 599.1955 404.63617Q600.53143 405.75336 602.9377 405.75336Q605.35956 405.75336 606.53143 404.76898Q607.7033 403.7846 607.7033 402.45648Q607.7033 401.25336 606.67206 400.58148Q605.9533 400.11273 603.0783 399.37836Q599.2033 398.4096 597.7111 397.69867Q596.21893 396.98773 595.4455 395.7221Q594.67206 394.45648 594.67206 392.94086Q594.67206 391.55023 595.3127 390.37054Q595.9533 389.19086 597.04706 388.4096Q597.85956 387.80023 599.2736 387.37836Q600.6877 386.95648 602.3127 386.95648Q604.7502 386.95648 606.60175 387.6596Q608.4533 388.36273 609.3283 389.56586Q610.2033 390.76898 610.53143 392.7846L607.09393 393.25336Q606.85956 391.64398 605.7424 390.74554Q604.6252 389.8471 602.5627 389.8471Q600.1408 389.8471 599.10956 390.6518Q598.0783 391.45648 598.0783 392.5346Q598.0783 393.20648 598.5002 393.75336Q598.9377 394.33148 599.85956 394.69086Q600.3752 394.89398 602.9533 395.5971Q606.6877 396.5971 608.16425 397.22992Q609.6408 397.86273 610.47675 399.07367Q611.3127 400.2846 611.3127 402.08148Q611.3127 403.83148 610.28925 405.38617Q609.2658 406.94086 607.3361 407.79242Q605.40643 408.64398 602.9533 408.64398Q598.92206 408.64398 596.79706 406.9643Q594.67206 405.2846 594.09393 401.98773ZM615.5158 383.58148L615.5158 379.5346L619.03143 379.5346L619.03143 383.58148L615.5158 383.58148ZM615.5158 408.17523L615.5158 387.42523L619.03143 387.42523L619.03143 408.17523L615.5158 408.17523ZM624.3908 408.17523L624.3908 387.42523L627.54706 387.42523L627.54706 390.37836Q629.84393 386.95648 634.15643 386.95648Q636.03143 386.95648 637.60175 387.63617Q639.17206 388.31586 639.9533 389.4096Q640.73456 390.50336 641.04706 392.00336Q641.2502 392.9721 641.2502 395.42523L641.2502 408.17523L637.73456 408.17523L637.73456 395.55023Q637.73456 393.4096 637.3205 392.3471Q636.90643 391.2846 635.85956 390.64398Q634.8127 390.00336 633.40643 390.00336Q631.17206 390.00336 629.53925 391.43304Q627.90643 392.86273 627.90643 396.8471L627.90643 408.17523L624.3908 408.17523ZM646.0002 409.89398L649.40643 410.4096Q649.6252 411.98773 650.60956 412.70648Q651.90643 413.69086 654.17206 413.69086Q656.6252 413.69086 657.9533 412.7143Q659.28143 411.73773 659.7502 409.9721Q660.0158 408.89398 660.0002 405.45648Q657.6877 408.17523 654.2502 408.17523Q649.98456 408.17523 647.6408 405.0893Q645.29706 402.00336 645.29706 397.69086Q645.29706 394.7221 646.3674 392.20648Q647.4377 389.69086 649.47675 388.32367Q651.5158 386.95648 654.28143 386.95648Q657.9533 386.95648 660.3283 389.92523L660.3283 387.42523L663.5783 387.42523L663.5783 405.36273Q663.5783 410.20648 662.5861 412.22992Q661.59393 414.25336 659.4611 415.42523Q657.3283 416.5971 654.2033 416.5971Q650.48456 416.5971 648.2033 414.92523Q645.92206 413.25336 646.0002 409.89398ZM648.90643 397.42523Q648.90643 401.51898 650.5236 403.39398Q652.1408 405.26898 654.59393 405.26898Q657.0158 405.26898 658.65643 403.4018Q660.29706 401.5346 660.29706 397.55023Q660.29706 393.73773 658.60175 391.80804Q656.90643 389.87836 654.53143 389.87836Q652.1877 389.87836 650.54706 391.7768Q648.90643 393.67523 648.90643 397.42523ZM679.84393 416.1596L679.4533 412.86273Q680.60956 413.17523 681.46893 413.17523Q682.6408 413.17523 683.34393 412.7846Q684.04706 412.39398 684.48456 411.69086Q684.8283 411.1596 685.5627 409.08148Q685.65643 408.7846 685.8752 408.2221L678.0002 387.42523L681.79706 387.42523L686.10956 399.44086Q686.9533 401.7221 687.60956 404.25336Q688.21893 401.83148 689.0627 399.51898L693.5002 387.42523L697.0158 387.42523L689.1252 408.5346Q687.84393 411.94086 687.1408 413.23773Q686.2033 414.9721 684.9924 415.7846Q683.78143 416.5971 682.10956 416.5971Q681.09393 416.5971 679.84393 416.1596ZM698.6877 397.80023Q698.6877 392.0346 701.8908 389.26898Q704.5627 386.95648 708.42206 386.95648Q712.6877 386.95648 715.40643 389.76117Q718.1252 392.56586 718.1252 397.50336Q718.1252 401.51898 716.92206 403.80804Q715.71893 406.0971 713.42206 407.37054Q711.1252 408.64398 708.42206 408.64398Q704.0627 408.64398 701.3752 405.8471Q698.6877 403.05023 698.6877 397.80023ZM702.29706 397.80023Q702.29706 401.7846 704.03925 403.76898Q705.78143 405.75336 708.42206 405.75336Q711.03143 405.75336 712.7736 403.76117Q714.5158 401.76898 714.5158 397.69086Q714.5158 393.83148 712.7658 391.85492Q711.0158 389.87836 708.42206 389.87836Q705.78143 389.87836 704.03925 391.8471Q702.29706 393.81586 702.29706 397.80023ZM735.8283 408.17523L735.8283 405.12836Q733.40643 408.64398 729.2502 408.64398Q727.40643 408.64398 725.8127 407.94086Q724.21893 407.23773 723.4533 406.17523Q722.6877 405.11273 722.3752 403.56586Q722.15643 402.5346 722.15643 400.2846L722.15643 387.42523L725.67206 387.42523L725.67206 398.94086Q725.67206 401.69086 725.8908 402.64398Q726.21893 404.0346 727.28925 404.82367Q728.35956 405.61273 729.9533 405.61273Q731.53143 405.61273 732.91425 404.80023Q734.29706 403.98773 734.8752 402.5971Q735.4533 401.20648 735.4533 398.55023L735.4533 387.42523L738.96893 387.42523L738.96893 408.17523L735.8283 408.17523ZM744.4377 408.17523L744.4377 387.42523L747.60956 387.42523L747.60956 390.58148Q748.8127 388.36273 749.84393 387.6596Q750.8752 386.95648 752.09393 386.95648Q753.8752 386.95648 755.71893 388.0971L754.5002 391.36273Q753.21893 390.5971 751.92206 390.5971Q750.7658 390.5971 749.85175 391.29242Q748.9377 391.98773 748.54706 393.20648Q747.9533 395.08148 747.9533 397.31586L747.9533 408.17523L744.4377 408.17523ZM768.8752 408.17523L768.8752 387.42523L772.04706 387.42523L772.04706 390.58148Q773.2502 388.36273 774.28143 387.6596Q775.3127 386.95648 776.53143 386.95648Q778.3127 386.95648 780.15643 388.0971L778.9377 391.36273Q777.65643 390.5971 776.35956 390.5971Q775.2033 390.5971 774.28925 391.29242Q773.3752 391.98773 772.98456 393.20648Q772.3908 395.08148 772.3908 397.31586L772.3908 408.17523L768.8752 408.17523ZM796.4377 401.48773L800.0627 401.94086Q799.2033 405.12836 796.883 406.88617Q794.5627 408.64398 790.9377 408.64398Q786.3908 408.64398 783.72675 405.8393Q781.0627 403.0346 781.0627 397.9721Q781.0627 392.73773 783.758 389.8471Q786.4533 386.95648 790.7502 386.95648Q794.90643 386.95648 797.54706 389.79242Q800.1877 392.62836 800.1877 397.76898Q800.1877 398.08148 800.15643 398.70648L784.6877 398.70648Q784.8908 402.11273 786.6252 403.93304Q788.35956 405.75336 790.96893 405.75336Q792.8908 405.75336 794.258 404.73773Q795.6252 403.7221 796.4377 401.48773ZM784.8908 395.81586L796.46893 395.81586Q796.23456 393.19086 795.1408 391.87836Q793.46893 389.8471 790.78143 389.8471Q788.35956 389.8471 786.7111 391.4721Q785.0627 393.0971 784.8908 395.81586ZM817.7033 416.12836L817.7033 405.9721Q816.8908 407.11273 815.41425 407.87836Q813.9377 408.64398 812.28143 408.64398Q808.5783 408.64398 805.91425 405.69086Q803.2502 402.73773 803.2502 397.61273Q803.2502 394.48773 804.3361 392.00336Q805.42206 389.51898 807.48456 388.23773Q809.54706 386.95648 812.0002 386.95648Q815.84393 386.95648 818.0627 390.20648L818.0627 387.42523L821.21893 387.42523L821.21893 416.12836L817.7033 416.12836ZM806.85956 397.73773Q806.85956 401.75336 808.53925 403.75336Q810.21893 405.75336 812.5627 405.75336Q814.8127 405.75336 816.4377 403.8471Q818.0627 401.94086 818.0627 398.05023Q818.0627 393.9096 816.35175 391.82367Q814.6408 389.73773 812.3283 389.73773Q810.04706 389.73773 808.4533 391.68304Q806.85956 393.62836 806.85956 397.73773ZM840.3283 408.17523L840.3283 405.12836Q837.90643 408.64398 833.7502 408.64398Q831.90643 408.64398 830.3127 407.94086Q828.71893 407.23773 827.9533 406.17523Q827.1877 405.11273 826.8752 403.56586Q826.65643 402.5346 826.65643 400.2846L826.65643 387.42523L830.17206 387.42523L830.17206 398.94086Q830.17206 401.69086 830.3908 402.64398Q830.71893 404.0346 831.78925 404.82367Q832.85956 405.61273 834.4533 405.61273Q836.03143 405.61273 837.41425 404.80023Q838.79706 403.98773 839.3752 402.5971Q839.9533 401.20648 839.9533 398.55023L839.9533 387.42523L843.46893 387.42523L843.46893 408.17523L840.3283 408.17523ZM863.1877 401.48773L866.8127 401.94086Q865.9533 405.12836 863.633 406.88617Q861.3127 408.64398 857.6877 408.64398Q853.1408 408.64398 850.47675 405.8393Q847.8127 403.0346 847.8127 397.9721Q847.8127 392.73773 850.508 389.8471Q853.2033 386.95648 857.5002 386.95648Q861.65643 386.95648 864.29706 389.79242Q866.9377 392.62836 866.9377 397.76898Q866.9377 398.08148 866.90643 398.70648L851.4377 398.70648Q851.6408 402.11273 853.3752 403.93304Q855.10956 405.75336 857.71893 405.75336Q859.6408 405.75336 861.008 404.73773Q862.3752 403.7221 863.1877 401.48773ZM851.6408 395.81586L863.21893 395.81586Q862.98456 393.19086 861.8908 391.87836Q860.21893 389.8471 857.53143 389.8471Q855.10956 389.8471 853.4611 391.4721Q851.8127 393.0971 851.6408 395.81586ZM869.8127 401.98773L873.28143 401.44086Q873.5783 403.51898 874.91425 404.63617Q876.2502 405.75336 878.65643 405.75336Q881.0783 405.75336 882.2502 404.76898Q883.42206 403.7846 883.42206 402.45648Q883.42206 401.25336 882.3908 400.58148Q881.67206 400.11273 878.79706 399.37836Q874.92206 398.4096 873.4299 397.69867Q871.9377 396.98773 871.16425 395.7221Q870.3908 394.45648 870.3908 392.94086Q870.3908 391.55023 871.03143 390.37054Q871.67206 389.19086 872.7658 388.4096Q873.5783 387.80023 874.9924 387.37836Q876.40643 386.95648 878.03143 386.95648Q880.46893 386.95648 882.3205 387.6596Q884.17206 388.36273 885.04706 389.56586Q885.92206 390.76898 886.2502 392.7846L882.8127 393.25336Q882.5783 391.64398 881.4611 390.74554Q880.34393 389.8471 878.28143 389.8471Q875.85956 389.8471 874.8283 390.6518Q873.79706 391.45648 873.79706 392.5346Q873.79706 393.20648 874.21893 393.75336Q874.65643 394.33148 875.5783 394.69086Q876.09393 394.89398 878.67206 395.5971Q882.40643 396.5971 883.883 397.22992Q885.35956 397.86273 886.1955 399.07367Q887.03143 400.2846 887.03143 402.08148Q887.03143 403.83148 886.008 405.38617Q884.98456 406.94086 883.0549 407.79242Q881.1252 408.64398 878.67206 408.64398Q874.6408 408.64398 872.5158 406.9643Q870.3908 405.2846 869.8127 401.98773ZM898.8908 405.0346L899.40643 408.12836Q897.92206 408.45648 896.7502 408.45648Q894.8283 408.45648 893.7736 407.8471Q892.71893 407.23773 892.28925 406.25336Q891.85956 405.26898 891.85956 402.0971L891.85956 390.1596L889.28143 390.1596L889.28143 387.42523L891.85956 387.42523L891.85956 382.30023L895.35956 380.19086L895.35956 387.42523L898.8908 387.42523L898.8908 390.1596L895.35956 390.1596L895.35956 402.30023Q895.35956 403.80023 895.54706 404.22992Q895.73456 404.6596 896.1486 404.9096Q896.5627 405.1596 897.34393 405.1596Q897.9377 405.1596 898.8908 405.0346Z" fill-rule="nonzero" fill="#000000"></path></svg>

