<?xml version="1.0" standalone="yes"?>

<svg version="1.1" viewBox="0.0 0.0 954.0 426.0" fill="none" stroke="none" stroke-linecap="square" stroke-miterlimit="10" xmlns="http://www.w3.org/2000/svg" xmlns:xlink="http://www.w3.org/1999/xlink"><path d="M177.33595 184.87138L406.6903 184.87138" fill-rule="nonzero" stroke="#000000" stroke-width="2.0" stroke-linejoin="round" stroke-linecap="butt"></path><path d="M560.92914 184.87138L790.28345 184.87138" fill-rule="nonzero" stroke="#000000" stroke-width="2.0" stroke-linejoin="round" stroke-linecap="butt"></path><path d="M178.38583 184.61154L402.73227 60.800526" fill-rule="nonzero" stroke="#000000" stroke-width="2.0" stroke-linejoin="round" stroke-linecap="butt"></path><path d="M180.48032 186.70604L413.96063 305.1942" fill-rule="nonzero" stroke="#000000" stroke-width="2.0" stroke-linejoin="round" stroke-linecap="butt"></path><path d="M532.3011 61.968975L765.9074 185.654" fill-rule="nonzero" stroke="#000000" stroke-width="2.0" stroke-linejoin="round" stroke-linecap="butt"></path><path d="M765.9055 185.6588L542.7559 302.2257" fill-rule="nonzero" stroke="#000000" stroke-width="2.0" stroke-linejoin="round" stroke-linecap="butt"></path><path d="M18.154856 184.8714L18.154856 184.8714C18.154856 159.71852 65.196686 139.32808 123.22572 139.32808L123.22572 139.32808C181.25476 139.32808 228.2966 159.71852 228.2966 184.8714L228.2966 184.8714C228.2966 210.02426 181.25476 230.4147 123.22572 230.4147L123.22572 230.4147C65.196686 230.4147 18.154856 210.02426 18.154856 184.8714Z" fill-rule="nonzero" fill="#ffffff" stroke="#000000" stroke-width="2.0" stroke-linejoin="round" stroke-linecap="butt"></path><path d="M366.92914 62.456696L366.92914 62.456696C366.92914 37.303818 413.97098 16.913385 472.0 16.913385L472.0 16.913385C530.02905 16.913385 577.07086 37.303818 577.07086 62.456696L577.07086 62.456696C577.07086 87.609566 530.02905 108.0 472.0 108.0L472.0 108.0C413.97098 108.0 366.92914 87.609566 366.92914 62.456696Z" fill-rule="nonzero" fill="#ffffff" stroke="#000000" stroke-width="2.0" stroke-linejoin="round" stroke-linecap="butt"></path><path d="M708.59845 184.8714L708.59845 184.8714C708.59845 159.71852 755.64026 139.32808 813.6693 139.32808L813.6693 139.32808C871.69836 139.32808 918.7402 159.71852 918.7402 184.8714L918.7402 184.8714C918.7402 210.02426 871.69836 230.4147 813.6693 230.4147L813.6693 230.4147C755.64026 230.4147 708.59845 210.02426 708.59845 184.8714Z" fill-rule="nonzero" fill="#ffffff" stroke="#000000" stroke-width="2.0" stroke-linejoin="round" stroke-linecap="butt"></path><path d="M366.92914 184.8714L366.92914 184.8714C366.92914 159.71852 413.97098 139.32808 472.0 139.32808L472.0 139.32808C530.02905 139.32808 577.07086 159.71852 577.07086 184.8714L577.07086 184.8714C577.07086 210.02426 530.02905 230.4147 472.0 230.4147L472.0 230.4147C413.97098 230.4147 366.92914 210.02426 366.92914 184.8714Z" fill-rule="nonzero" fill="#ffffff" stroke="#000000" stroke-width="2.0" stroke-linejoin="round" stroke-linecap="butt"></path><path d="M366.92914 303.30185L366.92914 303.30185C366.92914 278.14896 413.97098 257.75854 472.0 257.75854L472.0 257.75854C530.02905 257.75854 577.07086 278.14896 577.07086 303.30185L577.07086 303.30185C577.07086 328.4547 530.02905 348.84515 472.0 348.84515L472.0 348.84515C413.97098 348.84515 366.92914 328.4547 366.92914 303.30185Z" fill-rule="nonzero" fill="#ffffff" stroke="#000000" stroke-width="2.0" stroke-linejoin="round" stroke-linecap="butt"></path><path d="M176.89081 396.94086L176.89081 393.58148L189.01581 393.56586L189.01581 404.19086Q186.23456 406.4096 183.26581 407.5346Q180.29706 408.6596 177.17206 408.6596Q172.95331 408.6596 169.50018 406.85492Q166.04706 405.05023 164.28925 401.62836Q162.53143 398.20648 162.53143 393.98773Q162.53143 389.81586 164.28143 386.19086Q166.03143 382.56586 169.31268 380.80804Q172.59393 379.05023 176.87518 379.05023Q179.98456 379.05023 182.49237 380.05804Q185.00018 381.06586 186.42206 382.86273Q187.84393 384.6596 188.59393 387.55023L185.17206 388.48773Q184.53143 386.30023 183.5705 385.05023Q182.60956 383.80023 180.83612 383.05023Q179.06268 382.30023 176.89081 382.30023Q174.29706 382.30023 172.39862 383.0893Q170.50018 383.87836 169.34393 385.16742Q168.18768 386.45648 167.53143 388.00336Q166.43768 390.6596 166.43768 393.75336Q166.43768 397.58148 167.758 400.1596Q169.07831 402.73773 171.60175 403.98773Q174.12518 405.23773 176.95331 405.23773Q179.40643 405.23773 181.75018 404.29242Q184.09393 403.3471 185.31268 402.26898L185.31268 396.94086L176.89081 396.94086ZM194.10956 408.17523L194.10956 387.42523L197.28143 387.42523L197.28143 390.58148Q198.48456 388.36273 199.51581 387.6596Q200.54706 386.95648 201.76581 386.95648Q203.54706 386.95648 205.39081 388.0971L204.17206 391.36273Q202.89081 390.5971 201.59393 390.5971Q200.43768 390.5971 199.52362 391.29242Q198.60956 391.98773 198.21893 393.20648Q197.62518 395.08148 197.62518 397.31586L197.62518 408.17523L194.10956 408.17523ZM221.01581 405.61273Q219.06268 407.26898 217.258 407.95648Q215.45331 408.64398 213.37518 408.64398Q209.96893 408.64398 208.133 406.9721Q206.29706 405.30023 206.29706 402.70648Q206.29706 401.17523 206.98456 399.91742Q207.67206 398.6596 208.79706 397.9018Q209.92206 397.14398 211.32831 396.75336Q212.35956 396.4721 214.45331 396.2221Q218.71893 395.70648 220.71893 395.00336Q220.75018 394.2846 220.75018 394.0971Q220.75018 391.94086 219.75018 391.06586Q218.40643 389.87836 215.75018 389.87836Q213.26581 389.87836 212.08612 390.74554Q210.90643 391.61273 210.32831 393.81586L206.89081 393.3471Q207.35956 391.14398 208.43768 389.7846Q209.51581 388.42523 211.54706 387.69086Q213.57831 386.95648 216.25018 386.95648Q218.90643 386.95648 220.5705 387.58148Q222.23456 388.20648 223.01581 389.1596Q223.79706 390.11273 224.10956 391.55023Q224.28143 392.45648 224.28143 394.80023L224.28143 399.48773Q224.28143 404.37836 224.508 405.68304Q224.73456 406.98773 225.39081 408.17523L221.71893 408.17523Q221.17206 407.08148 221.01581 405.61273ZM220.71893 397.76898Q218.81268 398.55023 214.98456 399.0971Q212.81268 399.4096 211.91425 399.80023Q211.01581 400.19086 210.53143 400.94086Q210.04706 401.69086 210.04706 402.61273Q210.04706 404.01898 211.10956 404.95648Q212.17206 405.89398 214.21893 405.89398Q216.25018 405.89398 217.83612 405.00336Q219.42206 404.11273 220.15643 402.56586Q220.71893 401.37836 220.71893 399.05023L220.71893 397.76898ZM229.73456 416.12836L229.73456 387.42523L232.93768 387.42523L232.93768 390.12836Q234.06268 388.55023 235.49237 387.75336Q236.92206 386.95648 238.95331 386.95648Q241.60956 386.95648 243.64081 388.32367Q245.67206 389.69086 246.70331 392.18304Q247.73456 394.67523 247.73456 397.64398Q247.73456 400.83148 246.59393 403.37836Q245.45331 405.92523 243.27362 407.2846Q241.09393 408.64398 238.70331 408.64398Q236.93768 408.64398 235.53925 407.9018Q234.14081 407.1596 233.25018 406.01898L233.25018 416.12836L229.73456 416.12836ZM232.92206 397.92523Q232.92206 401.92523 234.53925 403.8393Q236.15643 405.75336 238.46893 405.75336Q240.81268 405.75336 242.47675 403.76898Q244.14081 401.7846 244.14081 397.62836Q244.14081 393.6596 242.51581 391.69086Q240.89081 389.7221 238.62518 389.7221Q236.37518 389.7221 234.64862 391.81586Q232.92206 393.9096 232.92206 397.92523ZM251.96893 408.17523L251.96893 379.5346L255.48456 379.5346L255.48456 389.81586Q257.93768 386.95648 261.68768 386.95648Q264.00018 386.95648 265.6955 387.87054Q267.3908 388.7846 268.12518 390.38617Q268.85956 391.98773 268.85956 395.0346L268.85956 408.17523L265.34393 408.17523L265.34393 395.0346Q265.34393 392.39398 264.2033 391.19086Q263.06268 389.98773 260.96893 389.98773Q259.40643 389.98773 258.03143 390.80023Q256.65643 391.61273 256.0705 392.99554Q255.48456 394.37836 255.48456 396.83148L255.48456 408.17523L251.96893 408.17523ZM274.1408 408.17523L274.1408 379.5346L277.65643 379.5346L277.65643 408.17523L274.1408 408.17523ZM297.31268 401.48773L300.93768 401.94086Q300.0783 405.12836 297.758 406.88617Q295.43768 408.64398 291.81268 408.64398Q287.2658 408.64398 284.60175 405.8393Q281.93768 403.0346 281.93768 397.9721Q281.93768 392.73773 284.633 389.8471Q287.3283 386.95648 291.62518 386.95648Q295.78143 386.95648 298.42206 389.79242Q301.06268 392.62836 301.06268 397.76898Q301.06268 398.08148 301.03143 398.70648L285.56268 398.70648Q285.7658 402.11273 287.50018 403.93304Q289.23456 405.75336 291.84393 405.75336Q293.7658 405.75336 295.133 404.73773Q296.50018 403.7221 297.31268 401.48773ZM285.7658 395.81586L297.34393 395.81586Q297.10956 393.19086 296.0158 391.87836Q294.34393 389.8471 291.65643 389.8471Q289.23456 389.8471 287.58612 391.4721Q285.93768 393.0971 285.7658 395.81586ZM313.03143 405.0346L313.54706 408.12836Q312.06268 408.45648 310.8908 408.45648Q308.96893 408.45648 307.91425 407.8471Q306.85956 407.23773 306.42987 406.25336Q306.00018 405.26898 306.00018 402.0971L306.00018 390.1596L303.42206 390.1596L303.42206 387.42523L306.00018 387.42523L306.00018 382.30023L309.50018 380.19086L309.50018 387.42523L313.03143 387.42523L313.03143 390.1596L309.50018 390.1596L309.50018 402.30023Q309.50018 403.80023 309.68768 404.22992Q309.87518 404.6596 310.28925 404.9096Q310.7033 405.1596 311.48456 405.1596Q312.0783 405.1596 313.03143 405.0346ZM327.59393 383.58148L327.59393 379.5346L331.10956 379.5346L331.10956 383.58148L327.59393 383.58148ZM327.59393 408.17523L327.59393 387.42523L331.10956 387.42523L331.10956 408.17523L327.59393 408.17523ZM335.06268 401.98773L338.53143 401.44086Q338.8283 403.51898 340.16425 404.63617Q341.50018 405.75336 343.90643 405.75336Q346.3283 405.75336 347.50018 404.76898Q348.67206 403.7846 348.67206 402.45648Q348.67206 401.25336 347.6408 400.58148Q346.92206 400.11273 344.04706 399.37836Q340.17206 398.4096 338.67987 397.69867Q337.18768 396.98773 336.41425 395.7221Q335.6408 394.45648 335.6408 392.94086Q335.6408 391.55023 336.28143 390.37054Q336.92206 389.19086 338.0158 388.4096Q338.8283 387.80023 340.24237 387.37836Q341.65643 386.95648 343.28143 386.95648Q345.71893 386.95648 347.5705 387.6596Q349.42206 388.36273 350.29706 389.56586Q351.17206 390.76898 351.50018 392.7846L348.06268 393.25336Q347.8283 391.64398 346.71112 390.74554Q345.59393 389.8471 343.53143 389.8471Q341.10956 389.8471 340.0783 390.6518Q339.04706 391.45648 339.04706 392.5346Q339.04706 393.20648 339.46893 393.75336Q339.90643 394.33148 340.8283 394.69086Q341.34393 394.89398 343.92206 395.5971Q347.65643 396.5971 349.133 397.22992Q350.60956 397.86273 351.4455 399.07367Q352.28143 400.2846 352.28143 402.08148Q352.28143 403.83148 351.258 405.38617Q350.23456 406.94086 348.30487 407.79242Q346.37518 408.64398 343.92206 408.64398Q339.8908 408.64398 337.7658 406.9643Q335.6408 405.2846 335.06268 401.98773ZM375.25018 405.0346L375.7658 408.12836Q374.28143 408.45648 373.10956 408.45648Q371.18768 408.45648 370.133 407.8471Q369.0783 407.23773 368.64862 406.25336Q368.21893 405.26898 368.21893 402.0971L368.21893 390.1596L365.6408 390.1596L365.6408 387.42523L368.21893 387.42523L368.21893 382.30023L371.71893 380.19086L371.71893 387.42523L375.25018 387.42523L375.25018 390.1596L371.71893 390.1596L371.71893 402.30023Q371.71893 403.80023 371.90643 404.22992Q372.09393 404.6596 372.508 404.9096Q372.92206 405.1596 373.7033 405.1596Q374.29706 405.1596 375.25018 405.0346ZM377.37518 397.80023Q377.37518 392.0346 380.5783 389.26898Q383.25018 386.95648 387.10956 386.95648Q391.37518 386.95648 394.09393 389.76117Q396.81268 392.56586 396.81268 397.50336Q396.81268 401.51898 395.60956 403.80804Q394.40643 406.0971 392.10956 407.37054Q389.81268 408.64398 387.10956 408.64398Q382.75018 408.64398 380.06268 405.8471Q377.37518 403.05023 377.37518 397.80023ZM380.98456 397.80023Q380.98456 401.7846 382.72675 403.76898Q384.46893 405.75336 387.10956 405.75336Q389.71893 405.75336 391.46112 403.76117Q393.2033 401.76898 393.2033 397.69086Q393.2033 393.83148 391.4533 391.85492Q389.7033 389.87836 387.10956 389.87836Q384.46893 389.87836 382.72675 391.8471Q380.98456 393.81586 380.98456 397.80023ZM399.62518 397.80023Q399.62518 392.0346 402.8283 389.26898Q405.50018 386.95648 409.35956 386.95648Q413.62518 386.95648 416.34393 389.76117Q419.06268 392.56586 419.06268 397.50336Q419.06268 401.51898 417.85956 403.80804Q416.65643 406.0971 414.35956 407.37054Q412.06268 408.64398 409.35956 408.64398Q405.00018 408.64398 402.31268 405.8471Q399.62518 403.05023 399.62518 397.80023ZM403.23456 397.80023Q403.23456 401.7846 404.97675 403.76898Q406.71893 405.75336 409.35956 405.75336Q411.96893 405.75336 413.71112 403.76117Q415.4533 401.76898 415.4533 397.69086Q415.4533 393.83148 413.7033 391.85492Q411.9533 389.87836 409.35956 389.87836Q406.71893 389.87836 404.97675 391.8471Q403.23456 393.81586 403.23456 397.80023ZM434.21893 408.17523L434.21893 379.5346L437.73456 379.5346L437.73456 408.17523L434.21893 408.17523ZM456.71893 405.61273Q454.7658 407.26898 452.96112 407.95648Q451.15643 408.64398 449.0783 408.64398Q445.67206 408.64398 443.83612 406.9721Q442.00018 405.30023 442.00018 402.70648Q442.00018 401.17523 442.68768 399.91742Q443.37518 398.6596 444.50018 397.9018Q445.62518 397.14398 447.03143 396.75336Q448.06268 396.4721 450.15643 396.2221Q454.42206 395.70648 456.42206 395.00336Q456.4533 394.2846 456.4533 394.0971Q456.4533 391.94086 455.4533 391.06586Q454.10956 389.87836 451.4533 389.87836Q448.96893 389.87836 447.78925 390.74554Q446.60956 391.61273 446.03143 393.81586L442.59393 393.3471Q443.06268 391.14398 444.1408 389.7846Q445.21893 388.42523 447.25018 387.69086Q449.28143 386.95648 451.9533 386.95648Q454.60956 386.95648 456.27362 387.58148Q457.93768 388.20648 458.71893 389.1596Q459.50018 390.11273 459.81268 391.55023Q459.98456 392.45648 459.98456 394.80023L459.98456 399.48773Q459.98456 404.37836 460.21112 405.68304Q460.43768 406.98773 461.09393 408.17523L457.42206 408.17523Q456.87518 407.08148 456.71893 405.61273ZM456.42206 397.76898Q454.5158 398.55023 450.68768 399.0971Q448.5158 399.4096 447.61737 399.80023Q446.71893 400.19086 446.23456 400.94086Q445.75018 401.69086 445.75018 402.61273Q445.75018 404.01898 446.81268 404.95648Q447.87518 405.89398 449.92206 405.89398Q451.9533 405.89398 453.53925 405.00336Q455.12518 404.11273 455.85956 402.56586Q456.42206 401.37836 456.42206 399.05023L456.42206 397.76898ZM465.3908 408.17523L465.3908 387.42523L468.56268 387.42523L468.56268 390.58148Q469.7658 388.36273 470.79706 387.6596Q471.8283 386.95648 473.04706 386.95648Q474.8283 386.95648 476.67206 388.0971L475.4533 391.36273Q474.17206 390.5971 472.87518 390.5971Q471.71893 390.5971 470.80487 391.29242Q469.8908 391.98773 469.50018 393.20648Q468.90643 395.08148 468.90643 397.31586L468.90643 408.17523L465.3908 408.17523ZM478.10956 409.89398L481.5158 410.4096Q481.73456 411.98773 482.71893 412.70648Q484.0158 413.69086 486.28143 413.69086Q488.73456 413.69086 490.06268 412.7143Q491.3908 411.73773 491.85956 409.9721Q492.12518 408.89398 492.10956 405.45648Q489.79706 408.17523 486.35956 408.17523Q482.09393 408.17523 479.75018 405.0893Q477.40643 402.00336 477.40643 397.69086Q477.40643 394.7221 478.47675 392.20648Q479.54706 389.69086 481.58612 388.32367Q483.62518 386.95648 486.3908 386.95648Q490.06268 386.95648 492.43768 389.92523L492.43768 387.42523L495.68768 387.42523L495.68768 405.36273Q495.68768 410.20648 494.6955 412.22992Q493.7033 414.25336 491.5705 415.42523Q489.43768 416.5971 486.31268 416.5971Q482.59393 416.5971 480.31268 414.92523Q478.03143 413.25336 478.10956 409.89398ZM481.0158 397.42523Q481.0158 401.51898 482.633 403.39398Q484.25018 405.26898 486.7033 405.26898Q489.12518 405.26898 490.7658 403.4018Q492.40643 401.5346 492.40643 397.55023Q492.40643 393.73773 490.71112 391.80804Q489.0158 389.87836 486.6408 389.87836Q484.29706 389.87836 482.65643 391.7768Q481.0158 393.67523 481.0158 397.42523ZM515.2033 401.48773L518.8283 401.94086Q517.96893 405.12836 515.6486 406.88617Q513.3283 408.64398 509.7033 408.64398Q505.15643 408.64398 502.49237 405.8393Q499.8283 403.0346 499.8283 397.9721Q499.8283 392.73773 502.52362 389.8471Q505.21893 386.95648 509.5158 386.95648Q513.67206 386.95648 516.3127 389.79242Q518.9533 392.62836 518.9533 397.76898Q518.9533 398.08148 518.92206 398.70648L503.4533 398.70648Q503.65643 402.11273 505.3908 403.93304Q507.12518 405.75336 509.73456 405.75336Q511.65643 405.75336 513.0236 404.73773Q514.3908 403.7221 515.2033 401.48773ZM503.65643 395.81586L515.23456 395.81586Q515.0002 393.19086 513.90643 391.87836Q512.23456 389.8471 509.54706 389.8471Q507.12518 389.8471 505.47675 391.4721Q503.8283 393.0971 503.65643 395.81586ZM542.03143 405.0346L542.54706 408.12836Q541.0627 408.45648 539.8908 408.45648Q537.96893 408.45648 536.91425 407.8471Q535.85956 407.23773 535.4299 406.25336Q535.0002 405.26898 535.0002 402.0971L535.0002 390.1596L532.42206 390.1596L532.42206 387.42523L535.0002 387.42523L535.0002 382.30023L538.5002 380.19086L538.5002 387.42523L542.03143 387.42523L542.03143 390.1596L538.5002 390.1596L538.5002 402.30023Q538.5002 403.80023 538.6877 404.22992Q538.8752 404.6596 539.28925 404.9096Q539.7033 405.1596 540.48456 405.1596Q541.0783 405.1596 542.03143 405.0346ZM544.15643 397.80023Q544.15643 392.0346 547.35956 389.26898Q550.03143 386.95648 553.8908 386.95648Q558.15643 386.95648 560.8752 389.76117Q563.59393 392.56586 563.59393 397.50336Q563.59393 401.51898 562.3908 403.80804Q561.1877 406.0971 558.8908 407.37054Q556.59393 408.64398 553.8908 408.64398Q549.53143 408.64398 546.84393 405.8471Q544.15643 403.05023 544.15643 397.80023ZM547.7658 397.80023Q547.7658 401.7846 549.508 403.76898Q551.2502 405.75336 553.8908 405.75336Q556.5002 405.75336 558.2424 403.76117Q559.98456 401.76898 559.98456 397.69086Q559.98456 393.83148 558.23456 391.85492Q556.48456 389.87836 553.8908 389.87836Q551.2502 389.87836 549.508 391.8471Q547.7658 393.81586 547.7658 397.80023ZM582.0627 408.17523L578.8127 408.17523L578.8127 379.5346L582.3283 379.5346L582.3283 389.75336Q584.54706 386.95648 588.0002 386.95648Q589.92206 386.95648 591.633 387.72992Q593.34393 388.50336 594.4455 389.9018Q595.54706 391.30023 596.17206 393.26898Q596.79706 395.23773 596.79706 397.48773Q596.79706 402.81586 594.15643 405.72992Q591.5158 408.64398 587.8283 408.64398Q584.15643 408.64398 582.0627 405.58148L582.0627 408.17523ZM582.03143 397.64398Q582.03143 401.37836 583.04706 403.0346Q584.7033 405.75336 587.53143 405.75336Q589.84393 405.75336 591.5236 403.75336Q593.2033 401.75336 593.2033 397.7846Q593.2033 393.7221 591.59393 391.7846Q589.98456 389.8471 587.6877 389.8471Q585.3908 389.8471 583.7111 391.85492Q582.03143 393.86273 582.03143 397.64398ZM615.28143 401.48773L618.90643 401.94086Q618.04706 405.12836 615.72675 406.88617Q613.40643 408.64398 609.78143 408.64398Q605.23456 408.64398 602.5705 405.8393Q599.90643 403.0346 599.90643 397.9721Q599.90643 392.73773 602.60175 389.8471Q605.29706 386.95648 609.59393 386.95648Q613.7502 386.95648 616.3908 389.79242Q619.03143 392.62836 619.03143 397.76898Q619.03143 398.08148 619.0002 398.70648L603.53143 398.70648Q603.73456 402.11273 605.46893 403.93304Q607.2033 405.75336 609.8127 405.75336Q611.73456 405.75336 613.10175 404.73773Q614.46893 403.7221 615.28143 401.48773ZM603.73456 395.81586L615.3127 395.81586Q615.0783 393.19086 613.98456 391.87836Q612.3127 389.8471 609.6252 389.8471Q607.2033 389.8471 605.5549 391.4721Q603.90643 393.0971 603.73456 395.81586ZM647.8908 408.17523L647.8908 405.55023Q645.92206 408.64398 642.09393 408.64398Q639.60956 408.64398 637.53143 407.2768Q635.4533 405.9096 634.3127 403.45648Q633.17206 401.00336 633.17206 397.81586Q633.17206 394.7221 634.2033 392.19086Q635.23456 389.6596 637.3049 388.30804Q639.3752 386.95648 641.9377 386.95648Q643.8127 386.95648 645.2736 387.75336Q646.73456 388.55023 647.65643 389.81586L647.65643 379.5346L651.15643 379.5346L651.15643 408.17523L647.8908 408.17523ZM636.78143 397.81586Q636.78143 401.80023 638.4611 403.7768Q640.1408 405.75336 642.42206 405.75336Q644.73456 405.75336 646.34393 403.87054Q647.9533 401.98773 647.9533 398.11273Q647.9533 393.86273 646.3127 391.87054Q644.67206 389.87836 642.2658 389.87836Q639.92206 389.87836 638.35175 391.79242Q636.78143 393.70648 636.78143 397.81586ZM656.7033 383.58148L656.7033 379.5346L660.21893 379.5346L660.21893 383.58148L656.7033 383.58148ZM656.7033 408.17523L656.7033 387.42523L660.21893 387.42523L660.21893 408.17523L656.7033 408.17523ZM664.15643 401.98773L667.6252 401.44086Q667.92206 403.51898 669.258 404.63617Q670.59393 405.75336 673.0002 405.75336Q675.42206 405.75336 676.59393 404.76898Q677.7658 403.7846 677.7658 402.45648Q677.7658 401.25336 676.73456 400.58148Q676.0158 400.11273 673.1408 399.37836Q669.2658 398.4096 667.7736 397.69867Q666.28143 396.98773 665.508 395.7221Q664.73456 394.45648 664.73456 392.94086Q664.73456 391.55023 665.3752 390.37054Q666.0158 389.19086 667.10956 388.4096Q667.92206 387.80023 669.3361 387.37836Q670.7502 386.95648 672.3752 386.95648Q674.8127 386.95648 676.66425 387.6596Q678.5158 388.36273 679.3908 389.56586Q680.2658 390.76898 680.59393 392.7846L677.15643 393.25336Q676.92206 391.64398 675.8049 390.74554Q674.6877 389.8471 672.6252 389.8471Q670.2033 389.8471 669.17206 390.6518Q668.1408 391.45648 668.1408 392.5346Q668.1408 393.20648 668.5627 393.75336Q669.0002 394.33148 669.92206 394.69086Q670.4377 394.89398 673.0158 395.5971Q676.7502 396.5971 678.22675 397.22992Q679.7033 397.86273 680.53925 399.07367Q681.3752 400.2846 681.3752 402.08148Q681.3752 403.83148 680.35175 405.38617Q679.3283 406.94086 677.3986 407.79242Q675.46893 408.64398 673.0158 408.64398Q668.98456 408.64398 666.85956 406.9643Q664.73456 405.2846 664.15643 401.98773ZM685.5627 416.12836L685.5627 387.42523L688.7658 387.42523L688.7658 390.12836Q689.8908 388.55023 691.3205 387.75336Q692.7502 386.95648 694.78143 386.95648Q697.4377 386.95648 699.46893 388.32367Q701.5002 389.69086 702.53143 392.18304Q703.5627 394.67523 703.5627 397.64398Q703.5627 400.83148 702.42206 403.37836Q701.28143 405.92523 699.10175 407.2846Q696.92206 408.64398 694.53143 408.64398Q692.7658 408.64398 691.3674 407.9018Q689.96893 407.1596 689.0783 406.01898L689.0783 416.12836L685.5627 416.12836ZM688.7502 397.92523Q688.7502 401.92523 690.3674 403.8393Q691.98456 405.75336 694.29706 405.75336Q696.6408 405.75336 698.3049 403.76898Q699.96893 401.7846 699.96893 397.62836Q699.96893 393.6596 698.34393 391.69086Q696.71893 389.7221 694.4533 389.7221Q692.2033 389.7221 690.47675 391.81586Q688.7502 393.9096 688.7502 397.92523ZM707.73456 408.17523L707.73456 379.5346L711.2502 379.5346L711.2502 408.17523L707.73456 408.17523ZM730.23456 405.61273Q728.28143 407.26898 726.47675 407.95648Q724.67206 408.64398 722.59393 408.64398Q719.1877 408.64398 717.35175 406.9721Q715.5158 405.30023 715.5158 402.70648Q715.5158 401.17523 716.2033 399.91742Q716.8908 398.6596 718.0158 397.9018Q719.1408 397.14398 720.54706 396.75336Q721.5783 396.4721 723.67206 396.2221Q727.9377 395.70648 729.9377 395.00336Q729.96893 394.2846 729.96893 394.0971Q729.96893 391.94086 728.96893 391.06586Q727.6252 389.87836 724.96893 389.87836Q722.48456 389.87836 721.3049 390.74554Q720.1252 391.61273 719.54706 393.81586L716.10956 393.3471Q716.5783 391.14398 717.65643 389.7846Q718.73456 388.42523 720.7658 387.69086Q722.79706 386.95648 725.46893 386.95648Q728.1252 386.95648 729.78925 387.58148Q731.4533 388.20648 732.23456 389.1596Q733.0158 390.11273 733.3283 391.55023Q733.5002 392.45648 733.5002 394.80023L733.5002 399.48773Q733.5002 404.37836 733.72675 405.68304Q733.9533 406.98773 734.60956 408.17523L730.9377 408.17523Q730.3908 407.08148 730.23456 405.61273ZM729.9377 397.76898Q728.03143 398.55023 724.2033 399.0971Q722.03143 399.4096 721.133 399.80023Q720.23456 400.19086 719.7502 400.94086Q719.2658 401.69086 719.2658 402.61273Q719.2658 404.01898 720.3283 404.95648Q721.3908 405.89398 723.4377 405.89398Q725.46893 405.89398 727.0549 405.00336Q728.6408 404.11273 729.3752 402.56586Q729.9377 401.37836 729.9377 399.05023L729.9377 397.76898ZM738.79706 416.1596L738.40643 412.86273Q739.5627 413.17523 740.42206 413.17523Q741.59393 413.17523 742.29706 412.7846Q743.0002 412.39398 743.4377 411.69086Q743.78143 411.1596 744.5158 409.08148Q744.60956 408.7846 744.8283 408.2221L736.9533 387.42523L740.7502 387.42523L745.0627 399.44086Q745.90643 401.7221 746.5627 404.25336Q747.17206 401.83148 748.0158 399.51898L752.4533 387.42523L755.96893 387.42523L748.0783 408.5346Q746.79706 411.94086 746.09393 413.23773Q745.15643 414.9721 743.9455 415.7846Q742.73456 416.5971 741.0627 416.5971Q740.04706 416.5971 738.79706 416.1596ZM773.15643 401.48773L776.78143 401.94086Q775.92206 405.12836 773.60175 406.88617Q771.28143 408.64398 767.65643 408.64398Q763.10956 408.64398 760.4455 405.8393Q757.78143 403.0346 757.78143 397.9721Q757.78143 392.73773 760.47675 389.8471Q763.17206 386.95648 767.46893 386.95648Q771.6252 386.95648 774.2658 389.79242Q776.90643 392.62836 776.90643 397.76898Q776.90643 398.08148 776.8752 398.70648L761.40643 398.70648Q761.60956 402.11273 763.34393 403.93304Q765.0783 405.75336 767.6877 405.75336Q769.60956 405.75336 770.97675 404.73773Q772.34393 403.7221 773.15643 401.48773ZM761.60956 395.81586L773.1877 395.81586Q772.9533 393.19086 771.85956 391.87836Q770.1877 389.8471 767.5002 389.8471Q765.0783 389.8471 763.4299 391.4721Q761.78143 393.0971 761.60956 395.81586ZM794.6408 408.17523L794.6408 405.55023Q792.67206 408.64398 788.84393 408.64398Q786.35956 408.64398 784.28143 407.2768Q782.2033 405.9096 781.0627 403.45648Q779.92206 401.00336 779.92206 397.81586Q779.92206 394.7221 780.9533 392.19086Q781.98456 389.6596 784.0549 388.30804Q786.1252 386.95648 788.6877 386.95648Q790.5627 386.95648 792.0236 387.75336Q793.48456 388.55023 794.40643 389.81586L794.40643 379.5346L797.90643 379.5346L797.90643 408.17523L794.6408 408.17523ZM783.53143 397.81586Q783.53143 401.80023 785.2111 403.7768Q786.8908 405.75336 789.17206 405.75336Q791.48456 405.75336 793.09393 403.87054Q794.7033 401.98773 794.7033 398.11273Q794.7033 393.86273 793.0627 391.87054Q791.42206 389.87836 789.0158 389.87836Q786.67206 389.87836 785.10175 391.79242Q783.53143 393.70648 783.53143 397.81586Z" fill-rule="nonzero" fill="#000000"></path></svg>

