<?xml version="1.0" standalone="yes"?>

<svg version="1.1" viewBox="0.0 0.0 675.0 346.0" fill="none" stroke="none" stroke-linecap="square" stroke-miterlimit="10" clip-path="url(#clip0)" xmlns="http://www.w3.org/2000/svg" xmlns:xlink="http://www.w3.org/1999/xlink"><clipPath id="clip0"><path d="M0 0L675.0 0L675.0 346.0L0 346.0L0 0Z" clip-rule="nonzero"></path></clipPath><path d="M90.62992 43.90814L582.50397 293.7034" fill-rule="nonzero" stroke="#999999" stroke-width="2.0" stroke-linejoin="round" stroke-linecap="butt"></path><path d="M336.57217 271.33597L335.7848 64.06036" fill-rule="nonzero" stroke="#999999" stroke-width="2.0" stroke-linejoin="round" stroke-linecap="butt"></path><path d="M142.44882 259.68765L575.5512 53.95538" fill-rule="nonzero" stroke="#999999" stroke-width="2.0" stroke-linejoin="round" stroke-linecap="butt"></path><path d="M108.419945 167.70079L555.41205 169.2441" fill-rule="nonzero" stroke="#999999" stroke-width="2.0" stroke-linejoin="round" stroke-linecap="butt"></path><path d="M264.6483 168.4252L264.6483 168.4252C264.6483 151.3435 297.0248 137.49606 336.96326 137.49606L336.96326 137.49606C376.9017 137.49606 409.27823 151.3435 409.27823 168.4252L409.27823 168.4252C409.27823 185.50688 376.9017 199.35432 336.96326 199.35432L336.96326 199.35432C297.0248 199.35432 264.6483 185.50688 264.6483 168.4252Z" fill-rule="nonzero" fill="#ffffff" stroke="#999999" stroke-width="2.0" stroke-linejoin="round" stroke-linecap="butt"></path><path d="M264.6483 52.892387L264.6483 52.892387C264.6483 35.8107 297.0248 21.963255 336.96326 21.963255L336.96326 21.963255C376.9017 21.963255 409.27823 35.8107 409.27823 52.892387L409.27823 52.892387C409.27823 69.974075 376.9017 83.821526 336.96326 83.821526L336.96326 83.821526C297.0248 83.821526 264.6483 69.974075 264.6483 52.892387Z" fill-rule="nonzero" fill="#ffffff" stroke="#999999" stroke-width="2.0" stroke-linejoin="round" stroke-linecap="butt"></path><path d="M53.29134 168.4252L53.29134 168.4252C53.29134 151.3435 85.66785 137.49606 125.6063 137.49606L125.6063 137.49606C165.54475 137.49606 197.92126 151.3435 197.92126 168.4252L197.92126 168.4252C197.92126 185.50688 165.54475 199.35432 125.6063 199.35432L125.6063 199.35432C85.66785 199.35432 53.29134 185.50688 53.29134 168.4252Z" fill-rule="nonzero" fill="#ffffff" stroke="#999999" stroke-width="2.0" stroke-linejoin="round" stroke-linecap="butt"></path><path d="M494.92914 168.4252L494.92914 168.4252C494.92914 151.3435 527.30566 137.49606 567.2441 137.49606L567.2441 137.49606C607.18256 137.49606 639.5591 151.3435 639.5591 168.4252L639.5591 168.4252C639.5591 185.50688 607.18256 199.35432 567.2441 199.35432L567.2441 199.35432C527.30566 199.35432 494.92914 185.50688 494.92914 168.4252Z" fill-rule="nonzero" fill="#ffffff" stroke="#999999" stroke-width="2.0" stroke-linejoin="round" stroke-linecap="butt"></path><path d="M264.6483 286.32285L264.6483 286.32285C264.6483 269.24115 297.0248 255.3937 336.96326 255.3937L336.96326 255.3937C376.9017 255.3937 409.27823 269.24115 409.27823 286.32285L409.27823 286.32285C409.27823 303.4045 376.9017 317.25198 336.96326 317.25198L336.96326 317.25198C297.0248 317.25198 264.6483 303.4045 264.6483 286.32285Z" fill-rule="nonzero" fill="#ffffff" stroke="#999999" stroke-width="2.0" stroke-linejoin="round" stroke-linecap="butt"></path><path d="M21.291338 44.892387L21.291338 44.892387C21.291338 27.8107 53.66785 13.963255 93.6063 13.963255L93.6063 13.963255C133.54475 13.963255 165.92126 27.8107 165.92126 44.892387L165.92126 44.892387C165.92126 61.97408 133.54475 75.821526 93.6063 75.821526L93.6063 75.821526C53.66785 75.821526 21.291338 61.97408 21.291338 44.892387Z" fill-rule="nonzero" fill="#ffffff" stroke="#999999" stroke-width="2.0" stroke-linejoin="round" stroke-linecap="butt"></path><path d="M502.92914 52.892387L502.92914 52.892387C502.92914 35.8107 535.30566 21.963255 575.2441 21.963255L575.2441 21.963255C615.18256 21.963255 647.5591 35.8107 647.5591 52.892387L647.5591 52.892387C647.5591 69.974075 615.18256 83.821526 575.2441 83.821526L575.2441 83.821526C535.30566 83.821526 502.92914 69.974075 502.92914 52.892387Z" fill-rule="nonzero" fill="#ffffff" stroke="#999999" stroke-width="2.0" stroke-linejoin="round" stroke-linecap="butt"></path><path d="M494.92914 294.32285L494.92914 294.32285C494.92914 277.24115 527.30566 263.3937 567.2441 263.3937L567.2441 263.3937C607.18256 263.3937 639.5591 277.24115 639.5591 294.32285L639.5591 294.32285C639.5591 311.4045 607.18256 325.25198 567.2441 325.25198L567.2441 325.25198C527.30566 325.25198 494.92914 311.4045 494.92914 294.32285Z" fill-rule="nonzero" fill="#ffffff" stroke="#999999" stroke-width="2.0" stroke-linejoin="round" stroke-linecap="butt"></path><path d="M61.29134 262.32285L61.29134 262.32285C61.29134 245.24115 93.66785 231.3937 133.6063 231.3937L133.6063 231.3937C173.54475 231.3937 205.92126 245.24115 205.92126 262.32285L205.92126 262.32285C205.92126 279.4045 173.54475 293.25198 133.6063 293.25198L133.6063 293.25198C93.66785 293.25198 61.29134 279.4045 61.29134 262.32285Z" fill-rule="nonzero" fill="#ffffff" stroke="#999999" stroke-width="2.0" stroke-linejoin="round" stroke-linecap="butt"></path><path d="M27.949844 194.68599L27.949844 137.42036L35.731094 137.42036L65.80922 182.37349L65.80922 137.42036L73.074844 137.42036L73.074844 194.68599L65.293594 194.68599L35.21547 149.68599L35.21547 194.68599L27.949844 194.68599ZM82.293594 173.93599Q82.293594 162.42036 88.699844 156.87349Q94.05922 152.26411 101.74672 152.26411Q110.30922 152.26411 115.73891 157.86568Q121.168594 163.46724 121.168594 173.35786Q121.168594 181.35786 118.762344 185.95161Q116.356094 190.54536 111.77016 193.08443Q107.18422 195.62349 101.74672 195.62349Q93.043594 195.62349 87.668594 190.03755Q82.293594 184.45161 82.293594 173.93599ZM89.52797 173.93599Q89.52797 181.90474 93.00453 185.87349Q96.481094 189.84224 101.74672 189.84224Q106.981094 189.84224 110.45766 185.85786Q113.93422 181.87349 113.93422 173.70161Q113.93422 166.01411 110.44203 162.04536Q106.949844 158.07661 101.74672 158.07661Q96.481094 158.07661 93.00453 162.02193Q89.52797 165.96724 89.52797 173.93599ZM152.52797 194.68599L152.52797 137.42036L172.26234 137.42036Q178.93422 137.42036 182.44984 138.23286Q187.37172 139.37349 190.8561 142.34224Q195.38734 146.17036 197.62953 152.12349Q199.87172 158.07661 199.87172 165.73286Q199.87172 172.26411 198.34828 177.30318Q196.82484 182.34224 194.44203 185.63911Q192.05922 188.93599 189.2311 190.83443Q186.40297 192.73286 182.39516 193.70943Q178.38734 194.68599 173.19984 194.68599L152.52797 194.68599ZM160.1061 187.92036L172.34047 187.92036Q177.99672 187.92036 181.22328 186.86568Q184.44984 185.81099 186.3561 183.90474Q189.05922 181.20161 190.55922 176.65474Q192.05922 172.10786 192.05922 165.62349Q192.05922 156.63911 189.1139 151.81099Q186.1686 146.98286 181.94984 145.34224Q178.90297 144.17036 172.13734 144.17036L160.1061 144.17036L160.1061 187.92036ZM236.46547 189.56099Q232.55922 192.88911 228.94984 194.2563Q225.34047 195.62349 221.19984 195.62349Q214.3561 195.62349 210.68422 192.27974Q207.01234 188.93599 207.01234 183.74849Q207.01234 180.70161 208.40297 178.17818Q209.7936 175.65474 212.03578 174.1313Q214.27797 172.60786 217.09047 171.82661Q219.1686 171.27974 223.34047 170.77974Q231.8561 169.76411 235.88734 168.35786Q235.9186 166.90474 235.9186 166.51411Q235.9186 162.21724 233.93422 160.46724Q231.2311 158.07661 225.9186 158.07661Q220.96547 158.07661 218.59828 159.8188Q216.2311 161.56099 215.1061 165.96724L208.2311 165.02974Q209.1686 160.62349 211.31703 157.90474Q213.46547 155.18599 217.52797 153.72505Q221.59047 152.26411 226.93422 152.26411Q232.24672 152.26411 235.56703 153.51411Q238.88734 154.76411 240.44984 156.65474Q242.01234 158.54536 242.63734 161.43599Q242.99672 163.23286 242.99672 167.92036L242.99672 177.29536Q242.99672 187.10786 243.44203 189.70161Q243.88734 192.29536 245.21547 194.68599L237.87172 194.68599Q236.77797 192.49849 236.46547 189.56099ZM235.88734 173.85786Q232.05922 175.42036 224.40297 176.51411Q220.05922 177.13911 218.26234 177.92036Q216.46547 178.70161 215.4889 180.20943Q214.51234 181.71724 214.51234 183.54536Q214.51234 186.35786 216.64516 188.23286Q218.77797 190.10786 222.87172 190.10786Q226.93422 190.10786 230.09828 188.33443Q233.26234 186.56099 234.74672 183.46724Q235.88734 181.09224 235.88734 176.43599L235.88734 173.85786ZM269.2467 188.38911L270.26233 194.60786Q267.29358 195.23286 264.94983 195.23286Q261.1217 195.23286 259.01233 194.02193Q256.90295 192.81099 256.04358 190.83443Q255.18422 188.85786 255.18422 182.52974L255.18422 158.67036L250.02797 158.67036L250.02797 153.20161L255.18422 153.20161L255.18422 142.92036L262.1842 138.70161L262.1842 153.20161L269.2467 153.20161L269.2467 158.67036L262.1842 158.67036L262.1842 182.92036Q262.1842 185.93599 262.5514 186.79536Q262.91858 187.65474 263.76233 188.16255Q264.60608 188.67036 266.16858 188.67036Q267.34045 188.67036 269.2467 188.38911ZM303.1842 189.56099Q299.27795 192.88911 295.66858 194.2563Q292.0592 195.62349 287.91858 195.62349Q281.07483 195.62349 277.40295 192.27974Q273.73108 188.93599 273.73108 183.74849Q273.73108 180.70161 275.1217 178.17818Q276.51233 175.65474 278.75452 174.1313Q280.9967 172.60786 283.8092 171.82661Q285.88733 171.27974 290.0592 170.77974Q298.57483 169.76411 302.60608 168.35786Q302.63733 166.90474 302.63733 166.51411Q302.63733 162.21724 300.65295 160.46724Q297.94983 158.07661 292.63733 158.07661Q287.6842 158.07661 285.31702 159.8188Q282.94983 161.56099 281.82483 165.96724L274.94983 165.02974Q275.88733 160.62349 278.03577 157.90474Q280.1842 155.18599 284.2467 153.72505Q288.3092 152.26411 293.65295 152.26411Q298.96545 152.26411 302.28577 153.51411Q305.60608 154.76411 307.16858 156.65474Q308.73108 158.54536 309.35608 161.43599Q309.71545 163.23286 309.71545 167.92036L309.71545 177.29536Q309.71545 187.10786 310.16077 189.70161Q310.60608 192.29536 311.9342 194.68599L304.59045 194.68599Q303.4967 192.49849 303.1842 189.56099ZM302.60608 173.85786Q298.77795 175.42036 291.1217 176.51411Q286.77795 177.13911 284.98108 177.92036Q283.1842 178.70161 282.20764 180.20943Q281.23108 181.71724 281.23108 183.54536Q281.23108 186.35786 283.3639 188.23286Q285.4967 190.10786 289.59045 190.10786Q293.65295 190.10786 296.81702 188.33443Q299.98108 186.56099 301.46545 183.46724Q302.60608 181.09224 302.60608 176.43599L302.60608 173.85786ZM369.90295 189.56099Q365.9967 192.88911 362.38733 194.2563Q358.77795 195.62349 354.63733 195.62349Q347.79358 195.62349 344.1217 192.27974Q340.44983 188.93599 340.44983 183.74849Q340.44983 180.70161 341.84045 178.17818Q343.23108 175.65474 345.47327 174.1313Q347.71545 172.60786 350.52795 171.82661Q352.60608 171.27974 356.77795 170.77974Q365.29358 169.76411 369.32483 168.35786Q369.35608 166.90474 369.35608 166.51411Q369.35608 162.21724 367.3717 160.46724Q364.66858 158.07661 359.35608 158.07661Q354.40295 158.07661 352.03577 159.8188Q349.66858 161.56099 348.54358 165.96724L341.66858 165.02974Q342.60608 160.62349 344.75452 157.90474Q346.90295 155.18599 350.96545 153.72505Q355.02795 152.26411 360.3717 152.26411Q365.6842 152.26411 369.00452 153.51411Q372.32483 154.76411 373.88733 156.65474Q375.44983 158.54536 376.07483 161.43599Q376.4342 163.23286 376.4342 167.92036L376.4342 177.29536Q376.4342 187.10786 376.87952 189.70161Q377.32483 192.29536 378.65295 194.68599L371.3092 194.68599Q370.21545 192.49849 369.90295 189.56099ZM369.32483 173.85786Q365.4967 175.42036 357.84045 176.51411Q353.4967 177.13911 351.69983 177.92036Q349.90295 178.70161 348.9264 180.20943Q347.94983 181.71724 347.94983 183.54536Q347.94983 186.35786 350.08264 188.23286Q352.21545 190.10786 356.3092 190.10786Q360.3717 190.10786 363.53577 188.33443Q366.69983 186.56099 368.1842 183.46724Q369.32483 181.09224 369.32483 176.43599L369.32483 173.85786ZM398.85608 194.68599L383.07483 153.20161L390.4967 153.20161L399.40295 178.04536Q400.85608 182.06099 402.0592 186.40474Q402.9967 183.12349 404.6842 178.51411L413.90295 153.20161L421.1217 153.20161L405.41858 194.68599L398.85608 194.68599ZM454.40295 189.56099Q450.4967 192.88911 446.88733 194.2563Q443.27795 195.62349 439.13733 195.62349Q432.29358 195.62349 428.6217 192.27974Q424.94983 188.93599 424.94983 183.74849Q424.94983 180.70161 426.34045 178.17818Q427.73108 175.65474 429.97327 174.1313Q432.21545 172.60786 435.02795 171.82661Q437.10608 171.27974 441.27795 170.77974Q449.79358 169.76411 453.82483 168.35786Q453.85608 166.90474 453.85608 166.51411Q453.85608 162.21724 451.8717 160.46724Q449.16858 158.07661 443.85608 158.07661Q438.90295 158.07661 436.53577 159.8188Q434.16858 161.56099 433.04358 165.96724L426.16858 165.02974Q427.10608 160.62349 429.25452 157.90474Q431.40295 155.18599 435.46545 153.72505Q439.52795 152.26411 444.8717 152.26411Q450.1842 152.26411 453.50452 153.51411Q456.82483 154.76411 458.38733 156.65474Q459.94983 158.54536 460.57483 161.43599Q460.9342 163.23286 460.9342 167.92036L460.9342 177.29536Q460.9342 187.10786 461.37952 189.70161Q461.82483 192.29536 463.15295 194.68599L455.8092 194.68599Q454.71545 192.49849 454.40295 189.56099ZM453.82483 173.85786Q449.9967 175.42036 442.34045 176.51411Q437.9967 177.13911 436.19983 177.92036Q434.40295 178.70161 433.4264 180.20943Q432.44983 181.71724 432.44983 183.54536Q432.44983 186.35786 434.58264 188.23286Q436.71545 190.10786 440.8092 190.10786Q444.8717 190.10786 448.03577 188.33443Q451.19983 186.56099 452.6842 183.46724Q453.82483 181.09224 453.82483 176.43599L453.82483 173.85786ZM471.85608 145.49849L471.85608 137.42036L478.88733 137.42036L478.88733 145.49849L471.85608 145.49849ZM471.85608 194.68599L471.85608 153.20161L478.88733 153.20161L478.88733 194.68599L471.85608 194.68599ZM489.44983 194.68599L489.44983 137.42036L496.48108 137.42036L496.48108 194.68599L489.44983 194.68599ZM534.4342 189.56099Q530.52795 192.88911 526.9186 194.2563Q523.3092 195.62349 519.1686 195.62349Q512.3248 195.62349 508.65295 192.27974Q504.98108 188.93599 504.98108 183.74849Q504.98108 180.70161 506.3717 178.17818Q507.76233 175.65474 510.00452 174.1313Q512.2467 172.60786 515.0592 171.82661Q517.1373 171.27974 521.3092 170.77974Q529.8248 169.76411 533.8561 168.35786Q533.8873 166.90474 533.8873 166.51411Q533.8873 162.21724 531.90295 160.46724Q529.1998 158.07661 523.8873 158.07661Q518.9342 158.07661 516.567 159.8188Q514.1998 161.56099 513.0748 165.96724L506.19983 165.02974Q507.13733 160.62349 509.28577 157.90474Q511.4342 155.18599 515.4967 153.72505Q519.5592 152.26411 524.90295 152.26411Q530.21545 152.26411 533.53577 153.51411Q536.8561 154.76411 538.4186 156.65474Q539.9811 158.54536 540.6061 161.43599Q540.96545 163.23286 540.96545 167.92036L540.96545 177.29536Q540.96545 187.10786 541.41077 189.70161Q541.8561 192.29536 543.1842 194.68599L535.84045 194.68599Q534.7467 192.49849 534.4342 189.56099ZM533.8561 173.85786Q530.02795 175.42036 522.3717 176.51411Q518.02795 177.13911 516.2311 177.92036Q514.4342 178.70161 513.45764 180.20943Q512.4811 181.71724 512.4811 183.54536Q512.4811 186.35786 514.6139 188.23286Q516.7467 190.10786 520.84045 190.10786Q524.90295 190.10786 528.067 188.33443Q531.2311 186.56099 532.71545 183.46724Q533.8561 181.09224 533.8561 176.43599L533.8561 173.85786ZM558.3561 194.68599L551.8248 194.68599L551.8248 137.42036L558.8561 137.42036L558.8561 157.84224Q563.3092 152.26411 570.2311 152.26411Q574.0592 152.26411 577.47327 153.80318Q580.8873 155.34224 583.09827 158.13911Q585.3092 160.93599 586.5592 164.8813Q587.8092 168.82661 587.8092 173.31099Q587.8092 183.98286 582.53577 189.80318Q577.2623 195.62349 569.8717 195.62349Q562.52795 195.62349 558.3561 189.48286L558.3561 194.68599ZM558.27795 173.62349Q558.27795 181.09224 560.3092 184.40474Q563.6217 189.84224 569.2936 189.84224Q573.90295 189.84224 577.2623 185.83443Q580.6217 181.82661 580.6217 173.90474Q580.6217 165.77974 577.39514 161.91255Q574.1686 158.04536 569.6061 158.04536Q564.9967 158.04536 561.6373 162.04536Q558.27795 166.04536 558.27795 173.62349ZM596.1998 194.68599L596.1998 137.42036L603.2311 137.42036L603.2311 194.68599L596.1998 194.68599ZM642.52795 181.32661L649.7936 182.21724Q648.0748 188.59224 643.4264 192.10786Q638.77795 195.62349 631.5592 195.62349Q622.4498 195.62349 617.1217 190.01411Q611.7936 184.40474 611.7936 174.29536Q611.7936 163.82661 617.1842 158.04536Q622.5748 152.26411 631.1686 152.26411Q639.4811 152.26411 644.7545 157.92818Q650.02795 163.59224 650.02795 173.85786Q650.02795 174.48286 649.9967 175.73286L619.0592 175.73286Q619.4498 182.57661 622.9264 186.20943Q626.40295 189.84224 631.59045 189.84224Q635.46545 189.84224 638.1998 187.81099Q640.9342 185.77974 642.52795 181.32661ZM619.4498 169.95161L642.6061 169.95161Q642.1373 164.71724 639.9498 162.10786Q636.59045 158.04536 631.2467 158.04536Q626.40295 158.04536 623.09827 161.28755Q619.7936 164.52974 619.4498 169.95161Z" fill-rule="nonzero" fill="#000000"></path></svg>

