<?xml version="1.0" standalone="yes"?>

<svg version="1.1" viewBox="0.0 0.0 1125.0 100.0" fill="none" stroke="none" stroke-linecap="square" stroke-miterlimit="10" xmlns="http://www.w3.org/2000/svg" xmlns:xlink="http://www.w3.org/1999/xlink"><path d="M116.86479 53.003925L1079.8569 53.003925" fill-rule="nonzero" stroke="#000000" stroke-width="2.0" stroke-linejoin="round" stroke-linecap="butt"></path><path d="M8.152231 53.181103L8.152231 53.181103C8.152231 41.422222 33.915245 31.889763 65.69553 31.889763L65.69553 31.889763C97.47582 31.889763 123.23884 41.422222 123.23884 53.181103L123.23884 53.181103C123.23884 64.93998 97.47582 74.47244 65.69553 74.47244L65.69553 74.47244C33.915245 74.47244 8.152231 64.93998 8.152231 53.181103Z" fill-rule="nonzero" fill="#ffffff" stroke="#000000" stroke-width="2.0" stroke-linejoin="round" stroke-linecap="butt"></path><path d="M36.61565 59.672726L36.61565 46.078976L38.42815 46.078976L38.42815 51.6571L45.49065 51.6571L45.49065 46.078976L47.287525 46.078976L47.287525 59.672726L45.49065 59.672726L45.49065 53.266476L38.42815 53.266476L38.42815 59.672726L36.61565 59.672726ZM49.193775 54.75085Q49.193775 52.016476 50.725025 50.68835Q51.99065 49.5946 53.818775 49.5946Q55.850025 49.5946 57.139088 50.93054Q58.42815 52.266476 58.42815 54.610226Q58.42815 56.516476 57.857838 57.602413Q57.287525 58.68835 56.201588 59.289913Q55.11565 59.891476 53.818775 59.891476Q51.756275 59.891476 50.475025 58.56335Q49.193775 57.235226 49.193775 54.75085ZM50.912525 54.75085Q50.912525 56.641476 51.74065 57.578976Q52.568775 58.516476 53.818775 58.516476Q55.068775 58.516476 55.889088 57.571163Q56.7094 56.62585 56.7094 54.68835Q56.7094 52.860226 55.881275 51.922726Q55.05315 50.985226 53.818775 50.985226Q52.568775 50.985226 51.74065 51.922726Q50.912525 52.860226 50.912525 54.75085ZM59.5219 56.735226L61.17815 56.4696Q61.318775 57.4696 61.951588 57.99304Q62.5844 58.516476 63.725025 58.516476Q64.88127 58.516476 65.43596 58.047726Q65.99065 57.578976 65.99065 56.953976Q65.99065 56.391476 65.50627 56.06335Q65.16252 55.8446 63.80315 55.50085Q61.9594 55.0321 61.248463 54.696163Q60.537525 54.360226 60.170338 53.758663Q59.80315 53.1571 59.80315 52.43835Q59.80315 51.7821 60.107838 51.2196Q60.412525 50.6571 60.92815 50.2821Q61.318775 50.00085 61.99065 49.797726Q62.662525 49.5946 63.42815 49.5946Q64.60002 49.5946 65.47502 49.93054Q66.35002 50.266476 66.764084 50.83679Q67.17815 51.4071 67.3344 52.360226L65.7094 52.578976Q65.60002 51.828976 65.06096 51.39929Q64.5219 50.9696 63.55315 50.9696Q62.3969 50.9696 61.912525 51.352413Q61.42815 51.735226 61.42815 52.235226Q61.42815 52.56335 61.631275 52.828976Q61.8344 53.0946 62.2719 53.266476Q62.5219 53.360226 63.74065 53.703976Q65.50627 54.172726 66.2094 54.4696Q66.91252 54.766476 67.31096 55.3446Q67.7094 55.922726 67.7094 56.7821Q67.7094 57.610226 67.22502 58.352413Q66.74065 59.0946 65.81877 59.49304Q64.8969 59.891476 63.74065 59.891476Q61.818775 59.891476 60.810963 59.0946Q59.80315 58.297726 59.5219 56.735226ZM73.17815 58.172726L73.41252 59.6571Q72.7094 59.797726 72.1469 59.797726Q71.24065 59.797726 70.74065 59.508663Q70.24065 59.2196 70.03752 58.758663Q69.8344 58.297726 69.8344 56.7821L69.8344 51.12585L68.60002 51.12585L68.60002 49.81335L69.8344 49.81335L69.8344 47.37585L71.49065 46.37585L71.49065 49.81335L73.17815 49.81335L73.17815 51.12585L71.49065 51.12585L71.49065 56.87585Q71.49065 57.5946 71.576584 57.797726Q71.66252 58.00085 71.86565 58.12585Q72.06877 58.25085 72.44377 58.25085Q72.7094 58.25085 73.17815 58.172726ZM80.41252 59.672726L80.41252 46.078976L82.22502 46.078976L82.22502 59.672726L80.41252 59.672726ZM85.30315 59.672726L85.30315 46.078976L90.42815 46.078976Q91.78752 46.078976 92.50627 46.203976Q93.50627 46.37585 94.17815 46.8446Q94.85002 47.31335 95.264084 48.1571Q95.67815 49.00085 95.67815 50.00085Q95.67815 51.735226 94.576584 52.93835Q93.47502 54.141476 90.5844 54.141476L87.10002 54.141476L87.10002 59.672726L85.30315 59.672726ZM87.10002 52.5321L90.61565 52.5321Q92.36565 52.5321 93.09221 51.883663Q93.81877 51.235226 93.81877 50.06335Q93.81877 49.203976 93.389084 48.5946Q92.9594 47.985226 92.25627 47.797726Q91.80315 47.672726 90.5844 47.672726L87.10002 47.672726L87.10002 52.5321Z" fill-rule="nonzero" fill="#000000"></path><path d="M150.53543 53.181103L150.53543 53.181103C150.53543 41.422222 179.12575 31.889763 214.3937 31.889763L214.3937 31.889763C249.66165 31.889763 278.25195 41.422222 278.25195 53.181103L278.25195 53.181103C278.25195 64.93998 249.66165 74.47244 214.3937 74.47244L214.3937 74.47244C179.12575 74.47244 150.53543 64.93998 150.53543 53.181103Z" fill-rule="nonzero" fill="#ffffff" stroke="#000000" stroke-width="2.0" stroke-linejoin="round" stroke-linecap="butt"></path><path d="M181.62971 59.672726L181.62971 46.078976L186.75471 46.078976Q188.11409 46.078976 188.83284 46.203976Q189.83284 46.37585 190.50471 46.8446Q191.17659 47.31335 191.59065 48.1571Q192.00471 49.00085 192.00471 50.00085Q192.00471 51.735226 190.90315 52.93835Q189.80159 54.141476 186.91096 54.141476L183.42659 54.141476L183.42659 59.672726L181.62971 59.672726ZM183.42659 52.5321L186.94221 52.5321Q188.69221 52.5321 189.41878 51.883663Q190.14534 51.235226 190.14534 50.06335Q190.14534 49.203976 189.71565 48.5946Q189.28596 47.985226 188.58284 47.797726Q188.12971 47.672726 186.91096 47.672726L183.42659 47.672726L183.42659 52.5321ZM193.84846 59.672726L193.84846 49.81335L195.34846 49.81335L195.34846 51.31335Q195.92659 50.266476 196.41096 49.93054Q196.89534 49.5946 197.48909 49.5946Q198.33284 49.5946 199.20784 50.141476L198.62971 51.68835Q198.02034 51.328976 197.39534 51.328976Q196.84846 51.328976 196.41878 51.6571Q195.98909 51.985226 195.80159 52.56335Q195.52034 53.453976 195.52034 54.516476L195.52034 59.672726L193.84846 59.672726ZM199.44221 54.75085Q199.44221 52.016476 200.97346 50.68835Q202.23909 49.5946 204.06721 49.5946Q206.09846 49.5946 207.38753 50.93054Q208.67659 52.266476 208.67659 54.610226Q208.67659 56.516476 208.10628 57.602413Q207.53596 58.68835 206.45003 59.289913Q205.36409 59.891476 204.06721 59.891476Q202.00471 59.891476 200.72346 58.56335Q199.44221 57.235226 199.44221 54.75085ZM201.16096 54.75085Q201.16096 56.641476 201.98909 57.578976Q202.81721 58.516476 204.06721 58.516476Q205.31721 58.516476 206.13753 57.571163Q206.95784 56.62585 206.95784 54.68835Q206.95784 52.860226 206.12971 51.922726Q205.30159 50.985226 204.06721 50.985226Q202.81721 50.985226 201.98909 51.922726Q201.16096 52.860226 201.16096 54.75085ZM214.09846 58.172726L214.33284 59.6571Q213.62971 59.797726 213.06721 59.797726Q212.16096 59.797726 211.66096 59.508663Q211.16096 59.2196 210.95784 58.758663Q210.75471 58.297726 210.75471 56.7821L210.75471 51.12585L209.52034 51.12585L209.52034 49.81335L210.75471 49.81335L210.75471 47.37585L212.41096 46.37585L212.41096 49.81335L214.09846 49.81335L214.09846 51.12585L212.41096 51.12585L212.41096 56.87585Q212.41096 57.5946 212.4969 57.797726Q212.58284 58.00085 212.78596 58.12585Q212.98909 58.25085 213.36409 58.25085Q213.62971 58.25085 214.09846 58.172726ZM215.00471 54.75085Q215.00471 52.016476 216.53596 50.68835Q217.80159 49.5946 219.62971 49.5946Q221.66096 49.5946 222.95003 50.93054Q224.23909 52.266476 224.23909 54.610226Q224.23909 56.516476 223.66878 57.602413Q223.09846 58.68835 222.01253 59.289913Q220.92659 59.891476 219.62971 59.891476Q217.56721 59.891476 216.28596 58.56335Q215.00471 57.235226 215.00471 54.75085ZM216.72346 54.75085Q216.72346 56.641476 217.55159 57.578976Q218.37971 58.516476 219.62971 58.516476Q220.87971 58.516476 221.70003 57.571163Q222.52034 56.62585 222.52034 54.68835Q222.52034 52.860226 221.69221 51.922726Q220.86409 50.985226 219.62971 50.985226Q218.37971 50.985226 217.55159 51.922726Q216.72346 52.860226 216.72346 54.75085ZM232.44221 56.06335L234.08284 56.2821Q233.81721 57.9696 232.70784 58.93054Q231.59846 59.891476 229.97346 59.891476Q227.95784 59.891476 226.73128 58.571163Q225.50471 57.25085 225.50471 54.7821Q225.50471 53.18835 226.02815 51.99304Q226.55159 50.797726 227.63753 50.196163Q228.72346 49.5946 229.98909 49.5946Q231.59846 49.5946 232.61409 50.4071Q233.62971 51.2196 233.92659 52.7196L232.30159 52.9696Q232.06721 51.9696 231.47346 51.4696Q230.87971 50.9696 230.05159 50.9696Q228.78596 50.9696 227.9969 51.87585Q227.20784 52.7821 227.20784 54.735226Q227.20784 56.7196 227.97346 57.61804Q228.73909 58.516476 229.95784 58.516476Q230.94221 58.516476 231.59846 57.914913Q232.25471 57.31335 232.44221 56.06335ZM234.70784 54.75085Q234.70784 52.016476 236.23909 50.68835Q237.50471 49.5946 239.33284 49.5946Q241.36409 49.5946 242.65315 50.93054Q243.94221 52.266476 243.94221 54.610226Q243.94221 56.516476 243.3719 57.602413Q242.80159 58.68835 241.71565 59.289913Q240.62971 59.891476 239.33284 59.891476Q237.27034 59.891476 235.98909 58.56335Q234.70784 57.235226 234.70784 54.75085ZM236.42659 54.75085Q236.42659 56.641476 237.25471 57.578976Q238.08284 58.516476 239.33284 58.516476Q240.58284 58.516476 241.40315 57.571163Q242.22346 56.62585 242.22346 54.68835Q242.22346 52.860226 241.39534 51.922726Q240.56721 50.985226 239.33284 50.985226Q238.08284 50.985226 237.25471 51.922726Q236.42659 52.860226 236.42659 54.75085ZM245.67659 59.672726L245.67659 46.078976L247.34846 46.078976L247.34846 59.672726L245.67659 59.672726Z" fill-rule="nonzero" fill="#000000"></path><path d="M302.88452 53.181103L302.88452 53.181103C302.88452 41.422222 336.54425 31.889763 378.0656 31.889763L378.0656 31.889763C419.587 31.889763 453.24673 41.422222 453.24673 53.181103L453.24673 53.181103C453.24673 64.93998 419.587 74.47244 378.0656 74.47244L378.0656 74.47244C336.54425 74.47244 302.88452 64.93998 302.88452 53.181103Z" fill-rule="nonzero" fill="#ffffff" stroke="#000000" stroke-width="2.0" stroke-linejoin="round" stroke-linecap="butt"></path><path d="M337.45142 59.672726L337.45142 46.078976L339.2483 46.078976L339.2483 58.06335L345.95142 58.06335L345.95142 59.672726L337.45142 59.672726ZM347.0608 54.75085Q347.0608 52.016476 348.59204 50.68835Q349.85767 49.5946 351.6858 49.5946Q353.71704 49.5946 355.0061 50.93054Q356.29517 52.266476 356.29517 54.610226Q356.29517 56.516476 355.72485 57.602413Q355.15454 58.68835 354.0686 59.289913Q352.98267 59.891476 351.6858 59.891476Q349.6233 59.891476 348.34204 58.56335Q347.0608 57.235226 347.0608 54.75085ZM348.77954 54.75085Q348.77954 56.641476 349.60767 57.578976Q350.4358 58.516476 351.6858 58.516476Q352.9358 58.516476 353.7561 57.571163Q354.57642 56.62585 354.57642 54.68835Q354.57642 52.860226 353.7483 51.922726Q352.92017 50.985226 351.6858 50.985226Q350.4358 50.985226 349.60767 51.922726Q348.77954 52.860226 348.77954 54.75085ZM364.4983 56.06335L366.13892 56.2821Q365.8733 57.9696 364.76392 58.93054Q363.65454 59.891476 362.02954 59.891476Q360.01392 59.891476 358.78735 58.571163Q357.5608 57.25085 357.5608 54.7821Q357.5608 53.18835 358.08423 51.99304Q358.60767 50.797726 359.6936 50.196163Q360.77954 49.5946 362.04517 49.5946Q363.65454 49.5946 364.67017 50.4071Q365.6858 51.2196 365.98267 52.7196L364.35767 52.9696Q364.1233 51.9696 363.52954 51.4696Q362.9358 50.9696 362.10767 50.9696Q360.84204 50.9696 360.05298 51.87585Q359.26392 52.7821 359.26392 54.735226Q359.26392 56.7196 360.02954 57.61804Q360.79517 58.516476 362.01392 58.516476Q362.9983 58.516476 363.65454 57.914913Q364.3108 57.31335 364.4983 56.06335ZM373.82642 58.453976Q372.88892 59.25085 372.02954 59.571163Q371.17017 59.891476 370.1858 59.891476Q368.57642 59.891476 367.70142 59.102413Q366.82642 58.31335 366.82642 57.078976Q366.82642 56.3446 367.15454 55.75085Q367.48267 55.1571 368.01392 54.797726Q368.54517 54.43835 369.21704 54.25085Q369.71704 54.110226 370.70142 54.00085Q372.73267 53.75085 373.6858 53.422726Q373.6858 53.078976 373.6858 52.985226Q373.6858 51.9696 373.21704 51.547726Q372.57642 50.985226 371.3108 50.985226Q370.13892 50.985226 369.57642 51.391476Q369.01392 51.797726 368.7483 52.860226L367.10767 52.62585Q367.34204 51.578976 367.84985 50.93835Q368.35767 50.297726 369.3186 49.946163Q370.27954 49.5946 371.5608 49.5946Q372.82642 49.5946 373.60767 49.891476Q374.38892 50.18835 374.76392 50.641476Q375.13892 51.0946 375.27954 51.7821Q375.3733 52.203976 375.3733 53.31335L375.3733 55.547726Q375.3733 57.87585 375.47485 58.49304Q375.57642 59.110226 375.90454 59.672726L374.15454 59.672726Q373.88892 59.1571 373.82642 58.453976ZM373.6858 54.735226Q372.77954 55.0946 370.95142 55.360226Q369.92017 55.50085 369.4983 55.68835Q369.07642 55.87585 368.84204 56.235226Q368.60767 56.5946 368.60767 57.0321Q368.60767 57.703976 369.11548 58.14929Q369.6233 58.5946 370.59204 58.5946Q371.5608 58.5946 372.3108 58.164913Q373.0608 57.735226 373.42017 57.016476Q373.6858 56.43835 373.6858 55.3446L373.6858 54.735226ZM377.73267 59.672726L377.73267 46.078976L379.40454 46.078976L379.40454 59.672726L377.73267 59.672726ZM387.3108 59.672726L387.3108 46.078976L392.4358 46.078976Q393.79517 46.078976 394.51392 46.203976Q395.51392 46.37585 396.1858 46.8446Q396.85767 47.31335 397.27173 48.1571Q397.6858 49.00085 397.6858 50.00085Q397.6858 51.735226 396.58423 52.93835Q395.48267 54.141476 392.59204 54.141476L389.10767 54.141476L389.10767 59.672726L387.3108 59.672726ZM389.10767 52.5321L392.6233 52.5321Q394.3733 52.5321 395.09985 51.883663Q395.82642 51.235226 395.82642 50.06335Q395.82642 49.203976 395.39673 48.5946Q394.96704 47.985226 394.26392 47.797726Q393.8108 47.672726 392.59204 47.672726L389.10767 47.672726L389.10767 52.5321ZM398.90454 54.75085Q398.90454 52.016476 400.4358 50.68835Q401.70142 49.5946 403.52954 49.5946Q405.5608 49.5946 406.84985 50.93054Q408.13892 52.266476 408.13892 54.610226Q408.13892 56.516476 407.5686 57.602413Q406.9983 58.68835 405.91235 59.289913Q404.82642 59.891476 403.52954 59.891476Q401.46704 59.891476 400.1858 58.56335Q398.90454 57.235226 398.90454 54.75085ZM400.6233 54.75085Q400.6233 56.641476 401.45142 57.578976Q402.27954 58.516476 403.52954 58.516476Q404.77954 58.516476 405.59985 57.571163Q406.42017 56.62585 406.42017 54.68835Q406.42017 52.860226 405.59204 51.922726Q404.76392 50.985226 403.52954 50.985226Q402.27954 50.985226 401.45142 51.922726Q400.6233 52.860226 400.6233 54.75085ZM409.88892 59.672726L409.88892 49.81335L411.38892 49.81335L411.38892 51.31335Q411.96704 50.266476 412.45142 49.93054Q412.9358 49.5946 413.52954 49.5946Q414.3733 49.5946 415.2483 50.141476L414.67017 51.68835Q414.0608 51.328976 413.4358 51.328976Q412.88892 51.328976 412.45923 51.6571Q412.02954 51.985226 411.84204 52.56335Q411.5608 53.453976 411.5608 54.516476L411.5608 59.672726L409.88892 59.672726ZM419.77954 58.172726L420.01392 59.6571Q419.3108 59.797726 418.7483 59.797726Q417.84204 59.797726 417.34204 59.508663Q416.84204 59.2196 416.63892 58.758663Q416.4358 58.297726 416.4358 56.7821L416.4358 51.12585L415.20142 51.12585L415.20142 49.81335L416.4358 49.81335L416.4358 47.37585L418.09204 46.37585L418.09204 49.81335L419.77954 49.81335L419.77954 51.12585L418.09204 51.12585L418.09204 56.87585Q418.09204 57.5946 418.17798 57.797726Q418.26392 58.00085 418.46704 58.12585Q418.67017 58.25085 419.04517 58.25085Q419.3108 58.25085 419.77954 58.172726Z" fill-rule="nonzero" fill="#000000"></path><path d="M591.5541 53.181103L591.5541 53.181103C591.5541 41.422222 631.4959 31.889763 680.76666 31.889763L680.76666 31.889763C730.0374 31.889763 769.97925 41.422222 769.97925 53.181103L769.97925 53.181103C769.97925 64.93998 730.0374 74.47244 680.76666 74.47244L680.76666 74.47244C631.4959 74.47244 591.5541 64.93998 591.5541 53.181103Z" fill-rule="nonzero" fill="#ffffff" stroke="#000000" stroke-width="2.0" stroke-linejoin="round" stroke-linecap="butt"></path><path d="M629.9026 59.672726L629.9026 46.078976L635.93384 46.078976Q637.74634 46.078976 638.69165 46.43835Q639.63696 46.797726 640.19946 47.727413Q640.76196 48.6571 640.76196 49.7821Q640.76196 51.235226 639.8323 52.227413Q638.9026 53.2196 636.93384 53.485226Q637.6526 53.828976 638.0276 54.1571Q638.80884 54.891476 639.51196 55.9696L641.88696 59.672726L639.62134 59.672726L637.82446 56.8446Q637.0276 55.62585 636.5198 54.9696Q636.01196 54.31335 635.6057 54.05554Q635.19946 53.797726 634.7932 53.703976Q634.4807 53.62585 633.7776 53.62585L631.69946 53.62585L631.69946 59.672726L629.9026 59.672726ZM631.69946 52.078976L635.55884 52.078976Q636.7932 52.078976 637.4885 51.821163Q638.18384 51.56335 638.551 51.00085Q638.9182 50.43835 638.9182 49.7821Q638.9182 48.81335 638.2151 48.196163Q637.51196 47.578976 635.99634 47.578976L631.69946 47.578976L631.69946 52.078976ZM649.87134 56.50085L651.5901 56.7196Q651.18384 58.2196 650.0823 59.05554Q648.9807 59.891476 647.26196 59.891476Q645.1057 59.891476 643.8401 58.56335Q642.57446 57.235226 642.57446 54.828976Q642.57446 52.3446 643.8479 50.9696Q645.12134 49.5946 647.1682 49.5946Q649.1526 49.5946 650.4026 50.93835Q651.6526 52.2821 651.6526 54.735226Q651.6526 54.87585 651.63696 55.172726L644.2932 55.172726Q644.38696 56.797726 645.2151 57.6571Q646.0432 58.516476 647.2776 58.516476Q648.18384 58.516476 648.8323 58.039913Q649.4807 57.56335 649.87134 56.50085ZM644.38696 53.797726L649.88696 53.797726Q649.7776 52.56335 649.26196 51.93835Q648.4651 50.9696 647.18384 50.9696Q646.0432 50.9696 645.25415 51.74304Q644.4651 52.516476 644.38696 53.797726ZM653.49634 59.672726L653.49634 49.81335L654.99634 49.81335L654.99634 51.203976Q655.44946 50.485226 656.2229 50.039913Q656.99634 49.5946 657.9807 49.5946Q659.07446 49.5946 659.7776 50.047726Q660.4807 50.50085 660.76196 51.328976Q661.93384 49.5946 663.80884 49.5946Q665.2776 49.5946 666.06665 50.4071Q666.8557 51.2196 666.8557 52.9071L666.8557 59.672726L665.18384 59.672726L665.18384 53.4696Q665.18384 52.4696 665.0276 52.02429Q664.87134 51.578976 664.44165 51.31335Q664.01196 51.047726 663.43384 51.047726Q662.4026 51.047726 661.7151 51.735226Q661.0276 52.422726 661.0276 53.953976L661.0276 59.672726L659.3557 59.672726L659.3557 53.266476Q659.3557 52.1571 658.94946 51.602413Q658.5432 51.047726 657.6057 51.047726Q656.9026 51.047726 656.301 51.414913Q655.69946 51.7821 655.43384 52.50085Q655.1682 53.2196 655.1682 54.56335L655.1682 59.672726L653.49634 59.672726ZM668.4182 54.75085Q668.4182 52.016476 669.94946 50.68835Q671.2151 49.5946 673.0432 49.5946Q675.07446 49.5946 676.3635 50.93054Q677.6526 52.266476 677.6526 54.610226Q677.6526 56.516476 677.0823 57.602413Q676.51196 58.68835 675.426 59.289913Q674.3401 59.891476 673.0432 59.891476Q670.9807 59.891476 669.69946 58.56335Q668.4182 57.235226 668.4182 54.75085ZM670.13696 54.75085Q670.13696 56.641476 670.9651 57.578976Q671.7932 58.516476 673.0432 58.516476Q674.2932 58.516476 675.1135 57.571163Q675.93384 56.62585 675.93384 54.68835Q675.93384 52.860226 675.1057 51.922726Q674.2776 50.985226 673.0432 50.985226Q671.7932 50.985226 670.9651 51.922726Q670.13696 52.860226 670.13696 54.75085ZM683.07446 58.172726L683.30884 59.6571Q682.6057 59.797726 682.0432 59.797726Q681.13696 59.797726 680.63696 59.508663Q680.13696 59.2196 679.93384 58.758663Q679.7307 58.297726 679.7307 56.7821L679.7307 51.12585L678.49634 51.12585L678.49634 49.81335L679.7307 49.81335L679.7307 47.37585L681.38696 46.37585L681.38696 49.81335L683.07446 49.81335L683.07446 51.12585L681.38696 51.12585L681.38696 56.87585Q681.38696 57.5946 681.4729 57.797726Q681.55884 58.00085 681.76196 58.12585Q681.9651 58.25085 682.3401 58.25085Q682.6057 58.25085 683.07446 58.172726ZM691.3401 56.50085L693.05884 56.7196Q692.6526 58.2196 691.551 59.05554Q690.44946 59.891476 688.7307 59.891476Q686.57446 59.891476 685.30884 58.56335Q684.0432 57.235226 684.0432 54.828976Q684.0432 52.3446 685.31665 50.9696Q686.5901 49.5946 688.63696 49.5946Q690.62134 49.5946 691.87134 50.93835Q693.12134 52.2821 693.12134 54.735226Q693.12134 54.87585 693.1057 55.172726L685.76196 55.172726Q685.8557 56.797726 686.68384 57.6571Q687.51196 58.516476 688.74634 58.516476Q689.6526 58.516476 690.301 58.039913Q690.94946 57.56335 691.3401 56.50085ZM685.8557 53.797726L691.3557 53.797726Q691.24634 52.56335 690.7307 51.93835Q689.93384 50.9696 688.6526 50.9696Q687.51196 50.9696 686.7229 51.74304Q685.93384 52.516476 685.8557 53.797726ZM700.37134 59.672726L700.37134 46.078976L705.49634 46.078976Q706.8557 46.078976 707.57446 46.203976Q708.57446 46.37585 709.24634 46.8446Q709.9182 47.31335 710.3323 48.1571Q710.74634 49.00085 710.74634 50.00085Q710.74634 51.735226 709.6448 52.93835Q708.5432 54.141476 705.6526 54.141476L702.1682 54.141476L702.1682 59.672726L700.37134 59.672726ZM702.1682 52.5321L705.68384 52.5321Q707.43384 52.5321 708.1604 51.883663Q708.88696 51.235226 708.88696 50.06335Q708.88696 49.203976 708.4573 48.5946Q708.0276 47.985226 707.32446 47.797726Q706.87134 47.672726 705.6526 47.672726L702.1682 47.672726L702.1682 52.5321ZM711.9807 54.75085Q711.9807 52.016476 713.51196 50.68835Q714.7776 49.5946 716.6057 49.5946Q718.63696 49.5946 719.926 50.93054Q721.2151 52.266476 721.2151 54.610226Q721.2151 56.516476 720.6448 57.602413Q720.07446 58.68835 718.9885 59.289913Q717.9026 59.891476 716.6057 59.891476Q714.5432 59.891476 713.26196 58.56335Q711.9807 57.235226 711.9807 54.75085ZM713.69946 54.75085Q713.69946 56.641476 714.5276 57.578976Q715.3557 58.516476 716.6057 58.516476Q717.8557 58.516476 718.676 57.571163Q719.49634 56.62585 719.49634 54.68835Q719.49634 52.860226 718.6682 51.922726Q717.8401 50.985226 716.6057 50.985226Q715.3557 50.985226 714.5276 51.922726Q713.69946 52.860226 713.69946 54.75085ZM722.9651 59.672726L722.9651 49.81335L724.4651 49.81335L724.4651 51.31335Q725.0432 50.266476 725.5276 49.93054Q726.01196 49.5946 726.6057 49.5946Q727.44946 49.5946 728.32446 50.141476L727.74634 51.68835Q727.13696 51.328976 726.51196 51.328976Q725.9651 51.328976 725.5354 51.6571Q725.1057 51.985226 724.9182 52.56335Q724.63696 53.453976 724.63696 54.516476L724.63696 59.672726L722.9651 59.672726ZM732.8401 58.172726L733.07446 59.6571Q732.37134 59.797726 731.80884 59.797726Q730.9026 59.797726 730.4026 59.508663Q729.9026 59.2196 729.69946 58.758663Q729.49634 58.297726 729.49634 56.7821L729.49634 51.12585L728.26196 51.12585L728.26196 49.81335L729.49634 49.81335L729.49634 47.37585L731.1526 46.37585L731.1526 49.81335L732.8401 49.81335L732.8401 51.12585L731.1526 51.12585L731.1526 56.87585Q731.1526 57.5946 731.2385 57.797726Q731.32446 58.00085 731.5276 58.12585Q731.7307 58.25085 732.1057 58.25085Q732.37134 58.25085 732.8401 58.172726Z" fill-rule="nonzero" fill="#000000"></path><path d="M948.1391 53.181103L948.1391 53.181103C948.1391 41.422222 985.0421 31.889763 1030.5643 31.889763L1030.5643 31.889763C1076.0864 31.889763 1112.9895 41.422222 1112.9895 53.181103L1112.9895 53.181103C1112.9895 64.93998 1076.0864 74.47244 1030.5643 74.47244L1030.5643 74.47244C985.0421 74.47244 948.1391 64.93998 948.1391 53.181103Z" fill-rule="nonzero" fill="#ffffff" stroke="#000000" stroke-width="2.0" stroke-linejoin="round" stroke-linecap="butt"></path><path d="M987.984 59.672726L987.984 46.078976L994.01526 46.078976Q995.82776 46.078976 996.7731 46.43835Q997.7184 46.797726 998.2809 47.727413Q998.8434 48.6571 998.8434 49.7821Q998.8434 51.235226 997.9137 52.227413Q996.984 53.2196 995.01526 53.485226Q995.734 53.828976 996.109 54.1571Q996.89026 54.891476 997.5934 55.9696L999.9684 59.672726L997.70276 59.672726L995.9059 56.8446Q995.109 55.62585 994.6012 54.9696Q994.0934 54.31335 993.68713 54.05554Q993.2809 53.797726 992.87463 53.703976Q992.56213 53.62585 991.859 53.62585L989.7809 53.62585L989.7809 59.672726L987.984 59.672726ZM989.7809 52.078976L993.64026 52.078976Q994.87463 52.078976 995.56995 51.821163Q996.26526 51.56335 996.63245 51.00085Q996.99963 50.43835 996.99963 49.7821Q996.99963 48.81335 996.2965 48.196163Q995.5934 47.578976 994.07776 47.578976L989.7809 47.578976L989.7809 52.078976ZM1007.9684 56.50085L1009.68713 56.7196Q1009.2809 58.2196 1008.1793 59.05554Q1007.07776 59.891476 1005.359 59.891476Q1003.20276 59.891476 1001.93713 58.56335Q1000.6715 57.235226 1000.6715 54.828976Q1000.6715 52.3446 1001.94495 50.9696Q1003.2184 49.5946 1005.26526 49.5946Q1007.24963 49.5946 1008.49963 50.93835Q1009.74963 52.2821 1009.74963 54.735226Q1009.74963 54.87585 1009.734 55.172726L1002.39026 55.172726Q1002.484 56.797726 1003.31213 57.6571Q1004.14026 58.516476 1005.37463 58.516476Q1006.2809 58.516476 1006.9293 58.039913Q1007.57776 57.56335 1007.9684 56.50085ZM1002.484 53.797726L1007.984 53.797726Q1007.87463 52.56335 1007.359 51.93835Q1006.56213 50.9696 1005.2809 50.9696Q1004.14026 50.9696 1003.3512 51.74304Q1002.56213 52.516476 1002.484 53.797726ZM1011.5934 59.672726L1011.5934 49.81335L1013.0934 49.81335L1013.0934 51.203976Q1013.5465 50.485226 1014.31995 50.039913Q1015.0934 49.5946 1016.07776 49.5946Q1017.1715 49.5946 1017.87463 50.047726Q1018.57776 50.50085 1018.859 51.328976Q1020.0309 49.5946 1021.9059 49.5946Q1023.37463 49.5946 1024.1637 50.4071Q1024.9528 51.2196 1024.9528 52.9071L1024.9528 59.672726L1023.2809 59.672726L1023.2809 53.4696Q1023.2809 52.4696 1023.12463 52.02429Q1022.9684 51.578976 1022.5387 51.31335Q1022.109 51.047726 1021.5309 51.047726Q1020.49963 51.047726 1019.81213 51.735226Q1019.12463 52.422726 1019.12463 53.953976L1019.12463 59.672726L1017.45276 59.672726L1017.45276 53.266476Q1017.45276 52.1571 1017.0465 51.602413Q1016.64026 51.047726 1015.70276 51.047726Q1014.99963 51.047726 1014.3981 51.414913Q1013.7965 51.7821 1013.5309 52.50085Q1013.26526 53.2196 1013.26526 54.56335L1013.26526 59.672726L1011.5934 59.672726ZM1026.4996 54.75085Q1026.4996 52.016476 1028.0309 50.68835Q1029.2965 49.5946 1031.1246 49.5946Q1033.1559 49.5946 1034.445 50.93054Q1035.734 52.266476 1035.734 54.610226Q1035.734 56.516476 1035.1637 57.602413Q1034.5934 58.68835 1033.5074 59.289913Q1032.4215 59.891476 1031.1246 59.891476Q1029.0621 59.891476 1027.7809 58.56335Q1026.4996 57.235226 1026.4996 54.75085ZM1028.2184 54.75085Q1028.2184 56.641476 1029.0465 57.578976Q1029.8746 58.516476 1031.1246 58.516476Q1032.3746 58.516476 1033.195 57.571163Q1034.0153 56.62585 1034.0153 54.68835Q1034.0153 52.860226 1033.1871 51.922726Q1032.359 50.985226 1031.1246 50.985226Q1029.8746 50.985226 1029.0465 51.922726Q1028.2184 52.860226 1028.2184 54.75085ZM1041.1559 58.172726L1041.3903 59.6571Q1040.6871 59.797726 1040.1246 59.797726Q1039.2184 59.797726 1038.7184 59.508663Q1038.2184 59.2196 1038.0153 58.758663Q1037.8121 58.297726 1037.8121 56.7821L1037.8121 51.12585L1036.5778 51.12585L1036.5778 49.81335L1037.8121 49.81335L1037.8121 47.37585L1039.4684 46.37585L1039.4684 49.81335L1041.1559 49.81335L1041.1559 51.12585L1039.4684 51.12585L1039.4684 56.87585Q1039.4684 57.5946 1039.5543 57.797726Q1039.6403 58.00085 1039.8434 58.12585Q1040.0465 58.25085 1040.4215 58.25085Q1040.6871 58.25085 1041.1559 58.172726ZM1049.4371 56.50085L1051.1559 56.7196Q1050.7496 58.2196 1049.6481 59.05554Q1048.5465 59.891476 1046.8278 59.891476Q1044.6715 59.891476 1043.4059 58.56335Q1042.1403 57.235226 1042.1403 54.828976Q1042.1403 52.3446 1043.4137 50.9696Q1044.6871 49.5946 1046.734 49.5946Q1048.7184 49.5946 1049.9684 50.93835Q1051.2184 52.2821 1051.2184 54.735226Q1051.2184 54.87585 1051.2028 55.172726L1043.859 55.172726Q1043.9528 56.797726 1044.7809 57.6571Q1045.609 58.516476 1046.8434 58.516476Q1047.7496 58.516476 1048.3981 58.039913Q1049.0465 57.56335 1049.4371 56.50085ZM1043.9528 53.797726L1049.4528 53.797726Q1049.3434 52.56335 1048.8278 51.93835Q1048.0309 50.9696 1046.7496 50.9696Q1045.609 50.9696 1044.82 51.74304Q1044.0309 52.516476 1043.9528 53.797726ZM1058.7653 59.672726L1058.7653 46.078976L1060.5778 46.078976L1060.5778 59.672726L1058.7653 59.672726ZM1063.6559 59.672726L1063.6559 46.078976L1068.7809 46.078976Q1070.1403 46.078976 1070.859 46.203976Q1071.859 46.37585 1072.5309 46.8446Q1073.2028 47.31335 1073.6168 48.1571Q1074.0309 49.00085 1074.0309 50.00085Q1074.0309 51.735226 1072.9293 52.93835Q1071.8278 54.141476 1068.9371 54.141476L1065.4528 54.141476L1065.4528 59.672726L1063.6559 59.672726ZM1065.4528 52.5321L1068.9684 52.5321Q1070.7184 52.5321 1071.445 51.883663Q1072.1715 51.235226 1072.1715 50.06335Q1072.1715 49.203976 1071.7418 48.5946Q1071.3121 47.985226 1070.609 47.797726Q1070.1559 47.672726 1068.9371 47.672726L1065.4528 47.672726L1065.4528 52.5321Z" fill-rule="nonzero" fill="#000000"></path><path d="M463.01202 44.0269L463.5589 41.323776L462.4964 41.323776L462.4964 40.386276L463.7464 40.386276L464.21515 38.073776L462.4964 38.073776L462.4964 37.136276L464.41827 37.136276L464.96515 34.4019L465.91827 34.4019L465.3714 37.136276L467.3714 37.136276L467.91827 34.4019L468.8714 34.4019L468.32452 37.136276L469.41827 37.136276L469.41827 38.073776L468.13702 38.073776L467.65265 40.386276L469.41827 40.386276L469.41827 41.323776L467.46515 41.323776L466.91827 44.0269L465.96515 44.0269L466.51202 41.323776L464.51202 41.323776L463.96515 44.0269L463.01202 44.0269ZM464.69952 40.386276L466.69952 40.386276L467.16827 38.073776L465.16827 38.073776L464.69952 40.386276ZM475.3714 43.87065L474.3089 43.87065L474.3089 34.55815L475.46515 34.55815L475.46515 37.886276Q476.1839 36.980026 477.3089 36.980026Q477.9339 36.980026 478.4886 37.230026Q479.04327 37.480026 479.40265 37.93315Q479.76202 38.386276 479.96515 39.0269Q480.16827 39.667526 480.16827 40.4019Q480.16827 42.136276 479.3089 43.08159Q478.44952 44.0269 477.2464 44.0269Q476.0589 44.0269 475.3714 43.0269L475.3714 43.87065ZM475.35577 40.448776Q475.35577 41.667526 475.69952 42.198776Q476.23077 43.0894 477.15265 43.0894Q477.90265 43.0894 478.44952 42.43315Q478.9964 41.7769 478.9964 40.49565Q478.9964 39.167526 478.47296 38.542526Q477.94952 37.917526 477.19952 37.917526Q476.44952 37.917526 475.90265 38.565964Q475.35577 39.2144 475.35577 40.448776ZM481.69952 46.4644L481.5589 45.4019Q481.9339 45.49565 482.21515 45.49565Q482.60577 45.49565 482.83234 45.37065Q483.0589 45.24565 483.19952 45.011276Q483.3089 44.8394 483.5589 44.167526Q483.59015 44.073776 483.65265 43.886276L481.09015 37.136276L482.32452 37.136276L483.73077 41.0269Q483.9964 41.7769 484.21515 42.5894Q484.41827 41.80815 484.6839 41.05815L486.13702 37.136276L487.27765 37.136276L484.71515 43.980026Q484.29327 45.0894 484.07452 45.511276Q483.76202 46.073776 483.3714 46.3394Q482.98077 46.605026 482.4339 46.605026Q482.10577 46.605026 481.69952 46.4644ZM490.90265 42.855026L491.0589 43.855026Q490.57452 43.9644 490.19952 43.9644Q489.57452 43.9644 489.23077 43.761276Q488.88702 43.55815 488.7464 43.23784Q488.60577 42.917526 488.60577 41.9019L488.60577 38.011276L487.77765 38.011276L487.77765 37.136276L488.60577 37.136276L488.60577 35.4644L489.7464 34.7769L489.7464 37.136276L490.90265 37.136276L490.90265 38.011276L489.7464 38.011276L489.7464 41.9644Q489.7464 42.448776 489.8089 42.5894Q489.8714 42.730026 490.0042 42.80815Q490.13702 42.886276 490.38702 42.886276Q490.59015 42.886276 490.90265 42.855026ZM496.71515 41.698776L497.90265 41.8394Q497.6214 42.886276 496.8636 43.45659Q496.10577 44.0269 494.9339 44.0269Q493.44952 44.0269 492.58234 43.11284Q491.71515 42.198776 491.71515 40.55815Q491.71515 38.855026 492.59796 37.917526Q493.48077 36.980026 494.8714 36.980026Q496.23077 36.980026 497.08234 37.9019Q497.9339 38.823776 497.9339 40.480026Q497.9339 40.5894 497.9339 40.792526L492.90265 40.792526Q492.96515 41.9019 493.52765 42.49565Q494.09015 43.0894 494.9339 43.0894Q495.57452 43.0894 496.01984 42.753464Q496.46515 42.417526 496.71515 41.698776ZM492.96515 39.855026L496.73077 39.855026Q496.65265 38.99565 496.29327 38.573776Q495.7464 37.917526 494.88702 37.917526Q494.09015 37.917526 493.5589 38.440964Q493.02765 38.9644 492.96515 39.855026ZM499.0589 41.855026L500.1839 41.68315Q500.27765 42.355026 500.71515 42.722214Q501.15265 43.0894 501.9339 43.0894Q502.71515 43.0894 503.09796 42.76909Q503.48077 42.448776 503.48077 42.011276Q503.48077 41.62065 503.13702 41.4019Q502.90265 41.24565 501.96515 41.011276Q500.71515 40.698776 500.23077 40.4644Q499.7464 40.230026 499.4964 39.823776Q499.2464 39.417526 499.2464 38.917526Q499.2464 38.4644 499.44952 38.08159Q499.65265 37.698776 500.01202 37.448776Q500.27765 37.24565 500.7386 37.11284Q501.19952 36.980026 501.73077 36.980026Q502.51202 36.980026 503.1136 37.20659Q503.71515 37.43315 504.0042 37.823776Q504.29327 38.2144 504.40265 38.87065L503.27765 39.0269Q503.19952 38.49565 502.84015 38.20659Q502.48077 37.917526 501.8089 37.917526Q501.02765 37.917526 500.6839 38.17534Q500.34015 38.43315 500.34015 38.792526Q500.34015 39.011276 500.48077 39.18315Q500.6214 39.37065 500.91827 39.49565Q501.09015 39.55815 501.9339 39.7769Q503.15265 40.105026 503.6292 40.30815Q504.10577 40.511276 504.3792 40.909714Q504.65265 41.30815 504.65265 41.886276Q504.65265 42.4644 504.3167 42.9644Q503.98077 43.4644 503.35577 43.74565Q502.73077 44.0269 501.9339 44.0269Q500.6214 44.0269 499.9339 43.480026Q499.2464 42.93315 499.0589 41.855026ZM512.0745 46.605026Q511.1214 45.417526 510.46515 43.815964Q509.8089 42.2144 509.8089 40.49565Q509.8089 38.99565 510.3089 37.605026Q510.8714 35.99565 512.0745 34.4019L512.887 34.4019Q512.1214 35.730026 511.8714 36.292526Q511.48077 37.167526 511.26202 38.12065Q510.9964 39.30815 510.9964 40.511276Q510.9964 43.55815 512.887 46.605026L512.0745 46.605026ZM514.1214 44.0269L514.6683 41.323776L513.6058 41.323776L513.6058 40.386276L514.8558 40.386276L515.3245 38.073776L513.6058 38.073776L513.6058 37.136276L515.52765 37.136276L516.0745 34.4019L517.02765 34.4019L516.4808 37.136276L518.4808 37.136276L519.02765 34.4019L519.9808 34.4019L519.4339 37.136276L520.52765 37.136276L520.52765 38.073776L519.2464 38.073776L518.762 40.386276L520.52765 40.386276L520.52765 41.323776L518.5745 41.323776L518.02765 44.0269L517.0745 44.0269L517.6214 41.323776L515.6214 41.323776L515.0745 44.0269L514.1214 44.0269ZM515.8089 40.386276L517.8089 40.386276L518.27765 38.073776L516.27765 38.073776L515.8089 40.386276ZM525.4339 46.448776L525.4339 37.136276L526.46515 37.136276L526.46515 38.011276Q526.84015 37.49565 527.3011 37.23784Q527.762 36.980026 528.4339 36.980026Q529.2933 36.980026 529.9495 37.42534Q530.6058 37.87065 530.9417 38.67534Q531.27765 39.480026 531.27765 40.448776Q531.27765 41.480026 530.91046 42.30815Q530.5433 43.136276 529.83234 43.58159Q529.1214 44.0269 528.34015 44.0269Q527.77765 44.0269 527.3245 43.784714Q526.8714 43.542526 526.5745 43.167526L526.5745 46.448776L525.4339 46.448776ZM526.46515 40.542526Q526.46515 41.8394 526.9964 42.4644Q527.52765 43.0894 528.262 43.0894Q529.02765 43.0894 529.5745 42.440964Q530.1214 41.792526 530.1214 40.448776Q530.1214 39.1519 529.59015 38.511276Q529.0589 37.87065 528.3245 37.87065Q527.59015 37.87065 527.02765 38.55034Q526.46515 39.230026 526.46515 40.542526ZM537.2464 43.042526Q536.6214 43.573776 536.03546 43.80034Q535.4495 44.0269 534.77765 44.0269Q533.65265 44.0269 533.0589 43.480026Q532.46515 42.93315 532.46515 42.0894Q532.46515 41.605026 532.6917 41.190964Q532.9183 40.7769 533.28546 40.5269Q533.65265 40.2769 534.1058 40.1519Q534.4339 40.073776 535.1214 39.980026Q536.4964 39.823776 537.15265 39.5894Q537.1683 39.355026 537.1683 39.292526Q537.1683 38.5894 536.84015 38.30815Q536.40265 37.917526 535.5433 37.917526Q534.7308 37.917526 534.34796 38.198776Q533.96515 38.480026 533.77765 39.198776L532.6683 39.05815Q532.8089 38.3394 533.16046 37.89409Q533.512 37.448776 534.1761 37.2144Q534.84015 36.980026 535.6995 36.980026Q536.5745 36.980026 537.1136 37.18315Q537.65265 37.386276 537.90265 37.690964Q538.15265 37.99565 538.262 38.4644Q538.3089 38.761276 538.3089 39.5269L538.3089 41.042526Q538.3089 42.636276 538.387 43.05815Q538.46515 43.480026 538.6683 43.87065L537.4808 43.87065Q537.3089 43.511276 537.2464 43.042526ZM537.15265 40.480026Q536.52765 40.74565 535.2933 40.917526Q534.59015 41.0269 534.2933 41.1519Q533.9964 41.2769 533.84015 41.51909Q533.6839 41.761276 533.6839 42.05815Q533.6839 42.511276 534.02765 42.815964Q534.3714 43.12065 535.0433 43.12065Q535.6995 43.12065 536.21515 42.83159Q536.7308 42.542526 536.9808 42.042526Q537.15265 41.667526 537.15265 40.9019L537.15265 40.480026ZM544.65265 41.4019L545.77765 41.542526Q545.6058 42.7144 544.84015 43.37065Q544.0745 44.0269 542.9808 44.0269Q541.59015 44.0269 540.7542 43.12065Q539.9183 42.2144 539.9183 40.5269Q539.9183 39.43315 540.27765 38.61284Q540.637 37.792526 541.3714 37.386276Q542.1058 36.980026 542.9808 36.980026Q544.0745 36.980026 544.77765 37.534714Q545.4808 38.0894 545.6683 39.105026L544.5589 39.2769Q544.40265 38.605026 544.0042 38.261276Q543.6058 37.917526 543.02765 37.917526Q542.1683 37.917526 541.6292 38.534714Q541.09015 39.1519 541.09015 40.49565Q541.09015 41.855026 541.6058 42.472214Q542.1214 43.0894 542.96515 43.0894Q543.637 43.0894 544.09015 42.67534Q544.5433 42.261276 544.65265 41.4019ZM546.9339 43.87065L546.9339 34.55815L548.0745 34.55815L548.0745 39.87065L550.77765 37.136276L552.262 37.136276L549.6839 39.636276L552.52765 43.87065L551.1214 43.87065L548.887 40.417526L548.0745 41.198776L548.0745 43.87065L546.9339 43.87065ZM558.1995 41.698776L559.387 41.8394Q559.1058 42.886276 558.34796 43.45659Q557.59015 44.0269 556.4183 44.0269Q554.9339 44.0269 554.0667 43.11284Q553.1995 42.198776 553.1995 40.55815Q553.1995 38.855026 554.08234 37.917526Q554.96515 36.980026 556.3558 36.980026Q557.71515 36.980026 558.5667 37.9019Q559.4183 38.823776 559.4183 40.480026Q559.4183 40.5894 559.4183 40.792526L554.387 40.792526Q554.4495 41.9019 555.012 42.49565Q555.5745 43.0894 556.4183 43.0894Q557.0589 43.0894 557.5042 42.753464Q557.9495 42.417526 558.1995 41.698776ZM554.4495 39.855026L558.21515 39.855026Q558.137 38.99565 557.77765 38.573776Q557.2308 37.917526 556.3714 37.917526Q555.5745 37.917526 555.0433 38.440964Q554.512 38.9644 554.4495 39.855026ZM563.512 42.855026L563.6683 43.855026Q563.1839 43.9644 562.8089 43.9644Q562.1839 43.9644 561.84015 43.761276Q561.4964 43.55815 561.3558 43.23784Q561.21515 42.917526 561.21515 41.9019L561.21515 38.011276L560.387 38.011276L560.387 37.136276L561.21515 37.136276L561.21515 35.4644L562.3558 34.7769L562.3558 37.136276L563.512 37.136276L563.512 38.011276L562.3558 38.011276L562.3558 41.9644Q562.3558 42.448776 562.4183 42.5894Q562.4808 42.730026 562.6136 42.80815Q562.7464 42.886276 562.9964 42.886276Q563.1995 42.886276 563.512 42.855026ZM564.262 41.855026L565.387 41.68315Q565.4808 42.355026 565.9183 42.722214Q566.3558 43.0894 567.137 43.0894Q567.9183 43.0894 568.3011 42.76909Q568.6839 42.448776 568.6839 42.011276Q568.6839 41.62065 568.34015 41.4019Q568.1058 41.24565 567.1683 41.011276Q565.9183 40.698776 565.4339 40.4644Q564.9495 40.230026 564.6995 39.823776Q564.4495 39.417526 564.4495 38.917526Q564.4495 38.4644 564.65265 38.08159Q564.8558 37.698776 565.21515 37.448776Q565.4808 37.24565 565.9417 37.11284Q566.40265 36.980026 566.9339 36.980026Q567.71515 36.980026 568.3167 37.20659Q568.9183 37.43315 569.20734 37.823776Q569.4964 38.2144 569.6058 38.87065L568.4808 39.0269Q568.40265 38.49565 568.0433 38.20659Q567.6839 37.917526 567.012 37.917526Q566.2308 37.917526 565.887 38.17534Q565.5433 38.43315 565.5433 38.792526Q565.5433 39.011276 565.6839 39.18315Q565.8245 39.37065 566.1214 39.49565Q566.2933 39.55815 567.137 39.7769Q568.3558 40.105026 568.83234 40.30815Q569.3089 40.511276 569.58234 40.909714Q569.8558 41.30815 569.8558 41.886276Q569.8558 42.4644 569.51984 42.9644Q569.1839 43.4644 568.5589 43.74565Q567.9339 44.0269 567.137 44.0269Q565.8245 44.0269 565.137 43.480026Q564.4495 42.93315 564.262 41.855026ZM572.1214 46.605026L571.2933 46.605026Q573.1995 43.55815 573.1995 40.511276Q573.1995 39.30815 572.9183 38.136276Q572.71515 37.18315 572.3245 36.30815Q572.0745 35.74565 571.2933 34.4019L572.1214 34.4019Q573.3089 35.99565 573.887 37.605026Q574.3714 38.99565 574.3714 40.49565Q574.3714 42.2144 573.71515 43.815964Q573.0589 45.417526 572.1214 46.605026Z" fill-rule="nonzero" fill="#000000"></path><path d="M777.28033 44.0269L777.8272 41.323776L776.7647 41.323776L776.7647 40.386276L778.0147 40.386276L778.48346 38.073776L776.7647 38.073776L776.7647 37.136276L778.6866 37.136276L779.23346 34.4019L780.1866 34.4019L779.6397 37.136276L781.6397 37.136276L782.1866 34.4019L783.1397 34.4019L782.59283 37.136276L783.6866 37.136276L783.6866 38.073776L782.40533 38.073776L781.92096 40.386276L783.6866 40.386276L783.6866 41.323776L781.73346 41.323776L781.1866 44.0269L780.23346 44.0269L780.78033 41.323776L778.78033 41.323776L778.23346 44.0269L777.28033 44.0269ZM778.96783 40.386276L780.96783 40.386276L781.4366 38.073776L779.4366 38.073776L778.96783 40.386276ZM788.85846 43.87065L788.85846 38.011276L787.85846 38.011276L787.85846 37.136276L788.85846 37.136276L788.85846 36.417526Q788.85846 35.730026 788.98346 35.4019Q789.15533 34.9644 789.5694 34.68315Q789.98346 34.4019 790.73346 34.4019Q791.21783 34.4019 791.79596 34.5269L791.6241 35.511276Q791.2647 35.448776 790.9522 35.448776Q790.4366 35.448776 790.21783 35.67534Q789.9991 35.9019 789.9991 36.511276L789.9991 37.136276L791.3116 37.136276L791.3116 38.011276L789.9991 38.011276L789.9991 43.87065L788.85846 43.87065ZM792.2647 43.87065L792.2647 34.55815L793.40533 34.55815L793.40533 43.87065L792.2647 43.87065ZM794.84283 40.49565Q794.84283 38.62065 795.8741 37.730026Q796.7491 36.980026 797.9991 36.980026Q799.3897 36.980026 800.2725 37.886276Q801.15533 38.792526 801.15533 40.4019Q801.15533 41.698776 800.7647 42.448776Q800.3741 43.198776 799.6241 43.61284Q798.8741 44.0269 797.9991 44.0269Q796.5772 44.0269 795.71 43.12065Q794.84283 42.2144 794.84283 40.49565ZM796.0147 40.49565Q796.0147 41.792526 796.5772 42.440964Q797.1397 43.0894 797.9991 43.0894Q798.84283 43.0894 799.41315 42.440964Q799.98346 41.792526 799.98346 40.4644Q799.98346 39.2144 799.41315 38.565964Q798.84283 37.917526 797.9991 37.917526Q797.1397 37.917526 796.5772 38.55815Q796.0147 39.198776 796.0147 40.49565ZM803.90533 43.87065L801.84283 37.136276L803.03033 37.136276L804.10846 41.0269L804.4991 42.4644Q804.53033 42.355026 804.85846 41.073776L805.92096 37.136276L807.09283 37.136276L808.10846 41.042526L808.4522 42.323776L808.8272 41.0269L809.98346 37.136276L811.09283 37.136276L808.98346 43.87065L807.8116 43.87065L806.73346 39.8394L806.46783 38.68315L805.10846 43.87065L803.90533 43.87065ZM811.84283 41.855026L812.96783 41.68315Q813.0616 42.355026 813.4991 42.722214Q813.9366 43.0894 814.71783 43.0894Q815.4991 43.0894 815.8819 42.76909Q816.2647 42.448776 816.2647 42.011276Q816.2647 41.62065 815.92096 41.4019Q815.6866 41.24565 814.7491 41.011276Q813.4991 40.698776 813.0147 40.4644Q812.53033 40.230026 812.28033 39.823776Q812.03033 39.417526 812.03033 38.917526Q812.03033 38.4644 812.23346 38.08159Q812.4366 37.698776 812.79596 37.448776Q813.0616 37.24565 813.5225 37.11284Q813.98346 36.980026 814.5147 36.980026Q815.29596 36.980026 815.8975 37.20659Q816.4991 37.43315 816.78815 37.823776Q817.0772 38.2144 817.1866 38.87065L816.0616 39.0269Q815.98346 38.49565 815.6241 38.20659Q815.2647 37.917526 814.59283 37.917526Q813.8116 37.917526 813.46783 38.17534Q813.1241 38.43315 813.1241 38.792526Q813.1241 39.011276 813.2647 39.18315Q813.40533 39.37065 813.7022 39.49565Q813.8741 39.55815 814.71783 39.7769Q815.9366 40.105026 816.41315 40.30815Q816.8897 40.511276 817.16315 40.909714Q817.4366 41.30815 817.4366 41.886276Q817.4366 42.4644 817.10065 42.9644Q816.7647 43.4644 816.1397 43.74565Q815.5147 44.0269 814.71783 44.0269Q813.40533 44.0269 812.71783 43.480026Q812.03033 42.93315 811.84283 41.855026ZM824.85846 46.605026Q823.90533 45.417526 823.2491 43.815964Q822.59283 42.2144 822.59283 40.49565Q822.59283 38.99565 823.09283 37.605026Q823.65533 35.99565 824.85846 34.4019L825.67096 34.4019Q824.90533 35.730026 824.65533 36.292526Q824.2647 37.167526 824.04596 38.12065Q823.78033 39.30815 823.78033 40.511276Q823.78033 43.55815 825.67096 46.605026L824.85846 46.605026ZM831.4991 43.042526Q830.8741 43.573776 830.28815 43.80034Q829.7022 44.0269 829.03033 44.0269Q827.90533 44.0269 827.3116 43.480026Q826.71783 42.93315 826.71783 42.0894Q826.71783 41.605026 826.9444 41.190964Q827.17096 40.7769 827.53815 40.5269Q827.90533 40.2769 828.35846 40.1519Q828.6866 40.073776 829.3741 39.980026Q830.7491 39.823776 831.40533 39.5894Q831.42096 39.355026 831.42096 39.292526Q831.42096 38.5894 831.09283 38.30815Q830.65533 37.917526 829.79596 37.917526Q828.98346 37.917526 828.60065 38.198776Q828.21783 38.480026 828.03033 39.198776L826.92096 39.05815Q827.0616 38.3394 827.41315 37.89409Q827.7647 37.448776 828.4288 37.2144Q829.09283 36.980026 829.9522 36.980026Q830.8272 36.980026 831.3663 37.18315Q831.90533 37.386276 832.15533 37.690964Q832.40533 37.99565 832.5147 38.4644Q832.5616 38.761276 832.5616 39.5269L832.5616 41.042526Q832.5616 42.636276 832.6397 43.05815Q832.71783 43.480026 832.92096 43.87065L831.73346 43.87065Q831.5616 43.511276 831.4991 43.042526ZM831.40533 40.480026Q830.78033 40.74565 829.54596 40.917526Q828.84283 41.0269 828.54596 41.1519Q828.2491 41.2769 828.09283 41.51909Q827.9366 41.761276 827.9366 42.05815Q827.9366 42.511276 828.28033 42.815964Q828.6241 43.12065 829.29596 43.12065Q829.9522 43.12065 830.46783 42.83159Q830.98346 42.542526 831.23346 42.042526Q831.40533 41.667526 831.40533 40.9019L831.40533 40.480026ZM836.3897 43.87065L833.8272 37.136276L835.03033 37.136276L836.46783 41.167526Q836.7022 41.823776 836.90533 42.5269Q837.0616 41.99565 837.3272 41.24565L838.8272 37.136276L839.9991 37.136276L837.4522 43.87065L836.3897 43.87065ZM840.96783 44.43315L842.09283 44.5894Q842.15533 45.105026 842.46783 45.3394Q842.90533 45.667526 843.6397 45.667526Q844.42096 45.667526 844.85846 45.347214Q845.29596 45.0269 845.4366 44.448776Q845.53033 44.105026 845.53033 42.99565Q844.78033 43.87065 843.65533 43.87065Q842.2647 43.87065 841.5069 42.87065Q840.7491 41.87065 840.7491 40.4644Q840.7491 39.49565 841.10065 38.68315Q841.4522 37.87065 842.10846 37.42534Q842.7647 36.980026 843.67096 36.980026Q844.85846 36.980026 845.6397 37.948776L845.6397 37.136276L846.6866 37.136276L846.6866 42.948776Q846.6866 44.5269 846.3663 45.18315Q846.04596 45.8394 845.35065 46.222214Q844.65533 46.605026 843.6397 46.605026Q842.4366 46.605026 841.6944 46.065964Q840.9522 45.5269 840.96783 44.43315ZM841.92096 40.386276Q841.92096 41.698776 842.4444 42.30815Q842.96783 42.917526 843.7647 42.917526Q844.5616 42.917526 845.09283 42.315964Q845.6241 41.7144 845.6241 40.417526Q845.6241 39.18315 845.0772 38.55034Q844.53033 37.917526 843.7491 37.917526Q842.98346 37.917526 842.4522 38.542526Q841.92096 39.167526 841.92096 40.386276ZM848.92096 43.87065L848.92096 42.573776L850.21783 42.573776L850.21783 43.87065L848.92096 43.87065ZM855.79596 44.0269L856.34283 41.323776L855.28033 41.323776L855.28033 40.386276L856.53033 40.386276L856.9991 38.073776L855.28033 38.073776L855.28033 37.136276L857.2022 37.136276L857.7491 34.4019L858.7022 34.4019L858.15533 37.136276L860.15533 37.136276L860.7022 34.4019L861.65533 34.4019L861.10846 37.136276L862.2022 37.136276L862.2022 38.073776L860.92096 38.073776L860.4366 40.386276L862.2022 40.386276L862.2022 41.323776L860.2491 41.323776L859.7022 44.0269L858.7491 44.0269L859.29596 41.323776L857.29596 41.323776L856.7491 44.0269L855.79596 44.0269ZM857.48346 40.386276L859.48346 40.386276L859.9522 38.073776L857.9522 38.073776L857.48346 40.386276ZM867.10846 46.448776L867.10846 37.136276L868.1397 37.136276L868.1397 38.011276Q868.5147 37.49565 868.97565 37.23784Q869.4366 36.980026 870.10846 36.980026Q870.96783 36.980026 871.6241 37.42534Q872.28033 37.87065 872.6163 38.67534Q872.9522 39.480026 872.9522 40.448776Q872.9522 41.480026 872.585 42.30815Q872.21783 43.136276 871.5069 43.58159Q870.79596 44.0269 870.0147 44.0269Q869.4522 44.0269 868.9991 43.784714Q868.54596 43.542526 868.2491 43.167526L868.2491 46.448776L867.10846 46.448776ZM868.1397 40.542526Q868.1397 41.8394 868.67096 42.4644Q869.2022 43.0894 869.9366 43.0894Q870.7022 43.0894 871.2491 42.440964Q871.79596 41.792526 871.79596 40.448776Q871.79596 39.1519 871.2647 38.511276Q870.73346 37.87065 869.9991 37.87065Q869.2647 37.87065 868.7022 38.55034Q868.1397 39.230026 868.1397 40.542526ZM878.92096 43.042526Q878.29596 43.573776 877.71 43.80034Q877.1241 44.0269 876.4522 44.0269Q875.3272 44.0269 874.73346 43.480026Q874.1397 42.93315 874.1397 42.0894Q874.1397 41.605026 874.3663 41.190964Q874.59283 40.7769 874.96 40.5269Q875.3272 40.2769 875.78033 40.1519Q876.10846 40.073776 876.79596 39.980026Q878.17096 39.823776 878.8272 39.5894Q878.84283 39.355026 878.84283 39.292526Q878.84283 38.5894 878.5147 38.30815Q878.0772 37.917526 877.21783 37.917526Q876.40533 37.917526 876.0225 38.198776Q875.6397 38.480026 875.4522 39.198776L874.34283 39.05815Q874.48346 38.3394 874.835 37.89409Q875.1866 37.448776 875.85065 37.2144Q876.5147 36.980026 877.3741 36.980026Q878.2491 36.980026 878.78815 37.18315Q879.3272 37.386276 879.5772 37.690964Q879.8272 37.99565 879.9366 38.4644Q879.98346 38.761276 879.98346 39.5269L879.98346 41.042526Q879.98346 42.636276 880.0616 43.05815Q880.1397 43.480026 880.34283 43.87065L879.15533 43.87065Q878.98346 43.511276 878.92096 43.042526ZM878.8272 40.480026Q878.2022 40.74565 876.96783 40.917526Q876.2647 41.0269 875.96783 41.1519Q875.67096 41.2769 875.5147 41.51909Q875.35846 41.761276 875.35846 42.05815Q875.35846 42.511276 875.7022 42.815964Q876.04596 43.12065 876.71783 43.12065Q877.3741 43.12065 877.8897 42.83159Q878.40533 42.542526 878.65533 42.042526Q878.8272 41.667526 878.8272 40.9019L878.8272 40.480026ZM886.3272 41.4019L887.4522 41.542526Q887.28033 42.7144 886.5147 43.37065Q885.7491 44.0269 884.65533 44.0269Q883.2647 44.0269 882.4288 43.12065Q881.59283 42.2144 881.59283 40.5269Q881.59283 39.43315 881.9522 38.61284Q882.3116 37.792526 883.04596 37.386276Q883.78033 36.980026 884.65533 36.980026Q885.7491 36.980026 886.4522 37.534714Q887.15533 38.0894 887.34283 39.105026L886.23346 39.2769Q886.0772 38.605026 885.6788 38.261276Q885.28033 37.917526 884.7022 37.917526Q883.84283 37.917526 883.3038 38.534714Q882.7647 39.1519 882.7647 40.49565Q882.7647 41.855026 883.28033 42.472214Q883.79596 43.0894 884.6397 43.0894Q885.3116 43.0894 885.7647 42.67534Q886.21783 42.261276 886.3272 41.4019ZM888.60846 43.87065L888.60846 34.55815L889.7491 34.55815L889.7491 39.87065L892.4522 37.136276L893.9366 37.136276L891.35846 39.636276L894.2022 43.87065L892.79596 43.87065L890.5616 40.417526L889.7491 41.198776L889.7491 43.87065L888.60846 43.87065ZM899.8741 41.698776L901.0616 41.8394Q900.78033 42.886276 900.0225 43.45659Q899.2647 44.0269 898.09283 44.0269Q896.60846 44.0269 895.7413 43.11284Q894.8741 42.198776 894.8741 40.55815Q894.8741 38.855026 895.7569 37.917526Q896.6397 36.980026 898.03033 36.980026Q899.3897 36.980026 900.2413 37.9019Q901.09283 38.823776 901.09283 40.480026Q901.09283 40.5894 901.09283 40.792526L896.0616 40.792526Q896.1241 41.9019 896.6866 42.49565Q897.2491 43.0894 898.09283 43.0894Q898.73346 43.0894 899.1788 42.753464Q899.6241 42.417526 899.8741 41.698776ZM896.1241 39.855026L899.8897 39.855026Q899.8116 38.99565 899.4522 38.573776Q898.90533 37.917526 898.04596 37.917526Q897.2491 37.917526 896.71783 38.440964Q896.1866 38.9644 896.1241 39.855026ZM905.1866 42.855026L905.34283 43.855026Q904.85846 43.9644 904.48346 43.9644Q903.85846 43.9644 903.5147 43.761276Q903.17096 43.55815 903.03033 43.23784Q902.8897 42.917526 902.8897 41.9019L902.8897 38.011276L902.0616 38.011276L902.0616 37.136276L902.8897 37.136276L902.8897 35.4644L904.03033 34.7769L904.03033 37.136276L905.1866 37.136276L905.1866 38.011276L904.03033 38.011276L904.03033 41.9644Q904.03033 42.448776 904.09283 42.5894Q904.15533 42.730026 904.28815 42.80815Q904.42096 42.886276 904.67096 42.886276Q904.8741 42.886276 905.1866 42.855026ZM905.9366 41.855026L907.0616 41.68315Q907.15533 42.355026 907.59283 42.722214Q908.03033 43.0894 908.8116 43.0894Q909.59283 43.0894 909.97565 42.76909Q910.35846 42.448776 910.35846 42.011276Q910.35846 41.62065 910.0147 41.4019Q909.78033 41.24565 908.84283 41.011276Q907.59283 40.698776 907.10846 40.4644Q906.6241 40.230026 906.3741 39.823776Q906.1241 39.417526 906.1241 38.917526Q906.1241 38.4644 906.3272 38.08159Q906.53033 37.698776 906.8897 37.448776Q907.15533 37.24565 907.6163 37.11284Q908.0772 36.980026 908.60846 36.980026Q909.3897 36.980026 909.9913 37.20659Q910.59283 37.43315 910.8819 37.823776Q911.17096 38.2144 911.28033 38.87065L910.15533 39.0269Q910.0772 38.49565 909.71783 38.20659Q909.35846 37.917526 908.6866 37.917526Q907.90533 37.917526 907.5616 38.17534Q907.21783 38.43315 907.21783 38.792526Q907.21783 39.011276 907.35846 39.18315Q907.4991 39.37065 907.79596 39.49565Q907.96783 39.55815 908.8116 39.7769Q910.03033 40.105026 910.5069 40.30815Q910.98346 40.511276 911.2569 40.909714Q911.53033 41.30815 911.53033 41.886276Q911.53033 42.4644 911.1944 42.9644Q910.85846 43.4644 910.23346 43.74565Q909.60846 44.0269 908.8116 44.0269Q907.4991 44.0269 906.8116 43.480026Q906.1241 42.93315 905.9366 41.855026ZM912.1866 44.0269L914.8897 34.4019L915.79596 34.4019L913.10846 44.0269L912.1866 44.0269ZM917.0147 43.87065L917.0147 38.011276L916.0147 38.011276L916.0147 37.136276L917.0147 37.136276L917.0147 36.417526Q917.0147 35.730026 917.1397 35.4019Q917.3116 34.9644 917.72565 34.68315Q918.1397 34.4019 918.8897 34.4019Q919.3741 34.4019 919.9522 34.5269L919.78033 35.511276Q919.42096 35.448776 919.10846 35.448776Q918.59283 35.448776 918.3741 35.67534Q918.15533 35.9019 918.15533 36.511276L918.15533 37.136276L919.46783 37.136276L919.46783 38.011276L918.15533 38.011276L918.15533 43.87065L917.0147 43.87065ZM920.42096 43.87065L920.42096 34.55815L921.5616 34.55815L921.5616 43.87065L920.42096 43.87065ZM922.9991 40.49565Q922.9991 38.62065 924.03033 37.730026Q924.90533 36.980026 926.15533 36.980026Q927.54596 36.980026 928.4288 37.886276Q929.3116 38.792526 929.3116 40.4019Q929.3116 41.698776 928.92096 42.448776Q928.53033 43.198776 927.78033 43.61284Q927.03033 44.0269 926.15533 44.0269Q924.73346 44.0269 923.8663 43.12065Q922.9991 42.2144 922.9991 40.49565ZM924.17096 40.49565Q924.17096 41.792526 924.73346 42.440964Q925.29596 43.0894 926.15533 43.0894Q926.9991 43.0894 927.5694 42.440964Q928.1397 41.792526 928.1397 40.4644Q928.1397 39.2144 927.5694 38.565964Q926.9991 37.917526 926.15533 37.917526Q925.29596 37.917526 924.73346 38.55815Q924.17096 39.198776 924.17096 40.49565ZM932.0616 43.87065L929.9991 37.136276L931.1866 37.136276L932.2647 41.0269L932.65533 42.4644Q932.6866 42.355026 933.0147 41.073776L934.0772 37.136276L935.2491 37.136276L936.2647 41.042526L936.60846 42.323776L936.98346 41.0269L938.1397 37.136276L939.2491 37.136276L937.1397 43.87065L935.96783 43.87065L934.8897 39.8394L934.6241 38.68315L933.2647 43.87065L932.0616 43.87065ZM941.2022 46.605026L940.3741 46.605026Q942.28033 43.55815 942.28033 40.511276Q942.28033 39.30815 941.9991 38.136276Q941.79596 37.18315 941.40533 36.30815Q941.15533 35.74565 940.3741 34.4019L941.2022 34.4019Q942.3897 35.99565 942.96783 37.605026Q943.4522 38.99565 943.4522 40.49565Q943.4522 42.2144 942.79596 43.815964Q942.1397 45.417526 941.2022 46.605026Z" fill-rule="nonzero" fill="#000000"></path></svg>

