<?xml version="1.0" encoding="UTF-8" standalone="no"?>
<svg
   xmlns:dc="http://purl.org/dc/elements/1.1/"
   xmlns:cc="http://creativecommons.org/ns#"
   xmlns:rdf="http://www.w3.org/1999/02/22-rdf-syntax-ns#"
   xmlns:svg="http://www.w3.org/2000/svg"
   xmlns="http://www.w3.org/2000/svg"
   xmlns:sodipodi="http://sodipodi.sourceforge.net/DTD/sodipodi-0.dtd"
   xmlns:inkscape="http://www.inkscape.org/namespaces/inkscape"
   version="1.1"
   viewBox="0 0 18000 18000"
   preserveAspectRatio="xMidYMid"
   id="svg2"
   inkscape:version="0.47 r22583"
   width="100%"
   height="100%"
   sodipodi:docname="hap.svg"
   style="fill-rule:evenodd">
  <metadata
     id="metadata312">
    <rdf:RDF>
      <cc:Work
         rdf:about="">
        <dc:format>image/svg+xml</dc:format>
        <dc:type
           rdf:resource="http://purl.org/dc/dcmitype/StillImage" />
      </cc:Work>
    </rdf:RDF>
  </metadata>
  <defs
     id="defs310">
    <inkscape:perspective
       sodipodi:type="inkscape:persp3d"
       inkscape:vp_x="0 : 13970 : 1"
       inkscape:vp_y="0 : 1000 : 0"
       inkscape:vp_z="21590 : 13970 : 1"
       inkscape:persp3d-origin="10795 : 9313.3333 : 1"
       id="perspective314" />
  </defs>
  <sodipodi:namedview
     pagecolor="#ffffff"
     bordercolor="#666666"
     borderopacity="1"
     objecttolerance="10"
     gridtolerance="10"
     guidetolerance="10"
     inkscape:pageopacity="0"
     inkscape:pageshadow="2"
     inkscape:window-width="1271"
     inkscape:window-height="844"
     id="namedview308"
     showgrid="false"
     inkscape:zoom="0.028284271"
     inkscape:cx="15910.547"
     inkscape:cy="9286.3155"
     inkscape:window-x="0"
     inkscape:window-y="25"
     inkscape:window-maximized="1"
     inkscape:current-layer="svg2" />
  <g
     visibility="visible"
     id="Default"
     style="visibility:visible"
     transform="translate(-1400,-2040)">
    <desc
       id="desc5">Master slide</desc>
    <g
       style="fill:none;stroke:none"
       id="g7">
      <rect
         x="986"
         y="986"
         width="19620"
         height="25970"
         id="rect9" />
    </g>
  </g>
  <g
     visibility="visible"
     id="page1"
     style="visibility:visible"
     transform="translate(-1400,-2040)">
    <desc
       id="desc12">Slide</desc>
    <g
       id="g14">
      <desc
         id="desc16">Drawing</desc>
      <g
         id="g18">
        <g
           style="fill:#0047ff;stroke:none"
           id="g20">
          <path
             d="m 6871,8739 c 2340,0 4128,962 4128,2222 0,1260 -1788,2223 -4128,2223 -2340,0 -4127,-963 -4127,-2223 0,-1260 1787,-2222 4127,-2222 z m -4127,0 0,0 z m 8256,4446 0,0 z"
             id="path22" />
        </g>
        <g
           style="fill:#000000;stroke:none"
           id="g24">
          <path
             d="m 6871,8612 c 595,0 1155,61 1660,173 l -28,124 -27,124 C 7987,8925 7446,8866 6871,8866 l 0,-127 0,-127 z"
             id="path26" />
          <path
             d="m 8531,8785 c 509,113 963,277 1342,481 l -60,112 -61,111 C 9392,9295 8960,9140 8476,9033 l 27,-124 28,-124 z"
             id="path28" />
          <path
             d="m 9873,9266 c 192,103 365,217 517,339 l -80,99 -80,99 c -140,-113 -300,-218 -478,-314 l 61,-111 60,-112 z"
             id="path30" />
          <path
             d="m 10390,9605 c 154,125 286,259 394,400 l -101,77 -101,77 c -96,-126 -214,-245 -352,-356 l 80,-99 80,-99 z"
             id="path32" />
          <path
             d="m 10784,10005 c 110,144 195,297 253,455 l -119,44 -120,43 c -49,-135 -122,-265 -216,-388 l 101,-77 101,-77 z"
             id="path34" />
          <path
             d="m 11037,10460 c 58,161 89,329 89,501 l -127,0 -127,0 c 0,-143 -25,-281 -74,-414 l 120,-43 119,-44 z"
             id="path36" />
          <path
             d="m 11126,10961 c 0,172 -31,340 -89,501 l -119,-44 -120,-43 c 49,-133 74,-271 74,-414 l 127,0 127,0 z"
             id="path38" />
          <path
             d="m 11037,11462 c -58,158 -143,311 -253,455 l -101,-77 -101,-77 c 94,-123 167,-253 216,-388 l 120,43 119,44 z"
             id="path40" />
          <path
             d="m 10784,11917 c -108,141 -240,275 -394,400 l -80,-99 -80,-99 c 138,-111 256,-230 352,-356 l 101,77 101,77 z"
             id="path42" />
          <path
             d="m 10390,12317 c -152,122 -325,236 -517,340 l -60,-112 -61,-112 c 178,-95 338,-200 478,-314 l 80,99 80,99 z"
             id="path44" />
          <path
             d="m 9873,12657 c -379,204 -833,368 -1342,481 l -28,-124 -27,-124 c 484,-107 916,-263 1276,-457 l 61,112 60,112 z"
             id="path46" />
          <path
             d="m 8531,13138 c -505,112 -1065,173 -1660,173 l 0,-127 0,-127 c 575,0 1116,-59 1605,-167 l 27,124 28,124 z"
             id="path48" />
          <path
             d="m 6871,13311 c -595,0 -1155,-61 -1659,-173 l 27,-124 27,-124 c 489,108 1030,167 1605,167 l 0,127 0,127 z"
             id="path50" />
          <path
             d="m 5212,13138 c -510,-113 -963,-277 -1342,-481 l 60,-112 60,-112 c 361,194 792,350 1276,457 l -27,124 -27,124 z"
             id="path52" />
          <path
             d="m 3870,12657 c -192,-104 -365,-218 -517,-340 l 80,-99 80,-99 c 140,114 300,219 477,314 l -60,112 -60,112 z"
             id="path54" />
          <path
             d="m 3353,12317 c -154,-125 -286,-259 -394,-400 l 101,-77 101,-77 c 96,126 214,245 352,356 l -80,99 -80,99 z"
             id="path56" />
          <path
             d="m 2959,11917 c -110,-144 -195,-297 -253,-455 l 119,-44 120,-43 c 49,135 122,265 216,388 l -101,77 -101,77 z"
             id="path58" />
          <path
             d="m 2706,11462 c -59,-161 -89,-329 -89,-501 l 127,0 127,0 c 0,143 25,281 74,414 l -120,43 -119,44 z"
             id="path60" />
          <path
             d="m 2617,10961 c 0,-172 31,-340 89,-501 l 119,44 120,43 c -49,133 -74,271 -74,414 l -127,0 -127,0 z"
             id="path62" />
          <path
             d="m 2706,10460 c 58,-158 143,-310 253,-455 l 101,77 101,77 c -94,123 -167,253 -216,388 l -120,-43 -119,-44 z"
             id="path64" />
          <path
             d="m 2959,10005 c 108,-141 240,-275 394,-400 l 80,99 80,99 c -138,111 -256,230 -352,356 l -101,-77 -101,-77 z"
             id="path66" />
          <path
             d="m 3353,9605 c 152,-122 325,-236 517,-339 l 60,112 60,111 c -177,96 -337,201 -477,314 l -80,-99 -80,-99 z"
             id="path68" />
          <path
             d="m 3870,9266 c 379,-204 832,-368 1342,-481 l 27,124 27,124 c -484,107 -915,262 -1276,456 l -60,-111 -60,-112 z"
             id="path70" />
          <path
             d="m 5212,8785 c 504,-112 1064,-173 1659,-173 l 0,127 0,127 c -575,0 -1116,59 -1605,167 l -27,-124 -27,-124 z"
             id="path72" />
          <path
             d="m 2744,8739 0,0 0,0 0,0 0,0 0,0 0,0 z"
             id="path74" />
          <path
             d="m 11000,13185 0,0 0,0 0,0 0,0 0,0 0,0 z"
             id="path76" />
        </g>
        <g
           id="g78" />
      </g>
    </g>
    <g
       id="g80">
      <desc
         id="desc82">Drawing</desc>
      <g
         id="g84">
        <g
           style="fill:#dc2300;stroke:none"
           id="g86">
          <path
             d="m 14072,13840 c 2340,0 4128,962 4128,2222 0,1260 -1788,2223 -4128,2223 -2340,0 -4127,-963 -4127,-2223 0,-1260 1787,-2222 4127,-2222 z m -4127,0 0,0 z m 8256,4446 0,0 z"
             id="path88" />
        </g>
        <g
           style="fill:#000000;stroke:none"
           id="g90">
          <path
             d="m 14072,13713 c 595,0 1155,61 1660,173 l -28,124 -27,124 c -489,-108 -1030,-167 -1605,-167 l 0,-127 0,-127 z"
             id="path92" />
          <path
             d="m 15732,13886 c 509,113 963,277 1342,481 l -60,112 -61,111 c -360,-194 -792,-349 -1276,-456 l 27,-124 28,-124 z"
             id="path94" />
          <path
             d="m 17074,14367 c 192,103 365,217 517,339 l -80,99 -80,99 c -140,-113 -300,-218 -478,-314 l 61,-111 60,-112 z"
             id="path96" />
          <path
             d="m 17591,14706 c 154,125 286,259 394,400 l -101,77 -101,77 c -96,-126 -214,-245 -352,-356 l 80,-99 80,-99 z"
             id="path98" />
          <path
             d="m 17985,15106 c 110,144 195,297 253,455 l -119,44 -120,43 c -49,-135 -122,-265 -216,-388 l 101,-77 101,-77 z"
             id="path100" />
          <path
             d="m 18238,15561 c 58,161 89,329 89,501 l -127,0 -127,0 c 0,-143 -25,-281 -74,-414 l 120,-43 119,-44 z"
             id="path102" />
          <path
             d="m 18327,16062 c 0,172 -31,340 -89,501 l -119,-44 -120,-43 c 49,-133 74,-271 74,-414 l 127,0 127,0 z"
             id="path104" />
          <path
             d="m 18238,16563 c -58,158 -143,311 -253,455 l -101,-77 -101,-77 c 94,-123 167,-253 216,-388 l 120,43 119,44 z"
             id="path106" />
          <path
             d="m 17985,17018 c -108,141 -240,275 -394,400 l -80,-99 -80,-99 c 138,-111 256,-230 352,-356 l 101,77 101,77 z"
             id="path108" />
          <path
             d="m 17591,17418 c -152,122 -325,236 -517,340 l -60,-112 -61,-112 c 178,-95 338,-200 478,-314 l 80,99 80,99 z"
             id="path110" />
          <path
             d="m 17074,17758 c -379,204 -833,368 -1342,481 l -28,-124 -27,-124 c 484,-107 916,-263 1276,-457 l 61,112 60,112 z"
             id="path112" />
          <path
             d="m 15732,18239 c -505,112 -1065,173 -1660,173 l 0,-127 0,-127 c 575,0 1116,-59 1605,-167 l 27,124 28,124 z"
             id="path114" />
          <path
             d="m 14072,18412 c -595,0 -1155,-61 -1659,-173 l 27,-124 27,-124 c 489,108 1030,167 1605,167 l 0,127 0,127 z"
             id="path116" />
          <path
             d="m 12413,18239 c -510,-113 -963,-277 -1342,-481 l 60,-112 60,-112 c 361,194 792,350 1276,457 l -27,124 -27,124 z"
             id="path118" />
          <path
             d="m 11071,17758 c -192,-104 -365,-218 -517,-340 l 80,-99 80,-99 c 140,114 300,219 477,314 l -60,112 -60,112 z"
             id="path120" />
          <path
             d="m 10554,17418 c -154,-125 -286,-259 -394,-400 l 101,-77 101,-77 c 96,126 214,245 352,356 l -80,99 -80,99 z"
             id="path122" />
          <path
             d="m 10160,17018 c -110,-144 -195,-297 -253,-455 l 119,-44 120,-43 c 49,135 122,265 216,388 l -101,77 -101,77 z"
             id="path124" />
          <path
             d="m 9907,16563 c -59,-161 -89,-329 -89,-501 l 127,0 127,0 c 0,143 25,281 74,414 l -120,43 -119,44 z"
             id="path126" />
          <path
             d="m 9818,16062 c 0,-172 31,-340 89,-501 l 119,44 120,43 c -49,133 -74,271 -74,414 l -127,0 -127,0 z"
             id="path128" />
          <path
             d="m 9907,15561 c 58,-158 143,-310 253,-455 l 101,77 101,77 c -94,123 -167,253 -216,388 l -120,-43 -119,-44 z"
             id="path130" />
          <path
             d="m 10160,15106 c 108,-141 240,-275 394,-400 l 80,99 80,99 c -138,111 -256,230 -352,356 l -101,-77 -101,-77 z"
             id="path132" />
          <path
             d="m 10554,14706 c 152,-122 325,-236 517,-339 l 60,112 60,111 c -177,96 -337,201 -477,314 l -80,-99 -80,-99 z"
             id="path134" />
          <path
             d="m 11071,14367 c 379,-204 832,-368 1342,-481 l 27,124 27,124 c -484,107 -915,262 -1276,456 l -60,-111 -60,-112 z"
             id="path136" />
          <path
             d="m 12413,13886 c 504,-112 1064,-173 1659,-173 l 0,127 0,127 c -575,0 -1116,59 -1605,167 l -27,-124 -27,-124 z"
             id="path138" />
          <path
             d="m 9945,13840 0,0 0,0 0,0 0,0 0,0 0,0 z"
             id="path140" />
          <path
             d="m 18201,18286 0,0 0,0 0,0 0,0 0,0 0,0 z"
             id="path142" />
        </g>
        <g
           id="g144" />
      </g>
    </g>
    <g
       id="g146">
      <desc
         id="desc148">Drawing</desc>
      <g
         id="g150">
        <g
           style="fill:#000000;stroke:none"
           id="g152">
          <path
             d="m 11050,14565 -1362,-1958 104,-73 104,-73 1362,1958 -104,73 -104,73 z"
             id="path154" />
        </g>
        <g
           id="g156" />
      </g>
    </g>
    <g
       id="g158">
      <desc
         id="desc160">Drawing</desc>
      <g
         id="g162">
        <g
           style="fill:#000000;stroke:none"
           id="g164">
          <path
             d="m 9699,9304 1363,-1455 93,87 93,87 -1363,1455 -93,-87 -93,-87 z"
             id="path166" />
        </g>
        <g
           id="g168" />
      </g>
    </g>
    <g
       id="g170">
      <desc
         id="desc172">Drawing</desc>
      <g
         id="g174">
        <g
           style="fill:#000000;stroke:none"
           id="g176">
          <path
             d="m 18203,15937 3361,53 -2,127 -2,127 -3361,-53 2,-127 2,-127 z"
             id="path178" />
        </g>
        <g
           id="g180" />
      </g>
    </g>
    <g
       id="g182">
      <desc
         id="desc184">Drawing</desc>
      <g
         id="g186">
        <g
           style="fill:#000000;stroke:none"
           id="g188">
          <path
             d="M 3922,9514 9,8540 l 31,-123 31,-123 3913,974 -31,123 -31,123 z"
             id="path190" />
        </g>
        <g
           id="g192" />
      </g>
    </g>
    <g
       id="g194">
      <desc
         id="desc196">Drawing</desc>
      <g
         id="g198">
        <g
           style="fill:#000000;stroke:none"
           id="g200">
          <path
             d="m 3985,12657 -3874,1017 -32,-123 -32,-123 3874,-1017 32,123 32,123 z"
             id="path202" />
        </g>
        <g
           id="g204" />
      </g>
    </g>
    <g
       id="g206">
      <desc
         id="desc208">Drawing</desc>
      <g
         id="g210">
        <g
           style="fill:#000000;stroke:none"
           id="g212">
          <path
             d="m 2744,11090 -2784,-19 1,-127 1,-127 2784,19 -1,127 -1,127 z"
             id="path214" />
        </g>
        <g
           id="g216" />
      </g>
    </g>
    <g
       id="g218">
      <desc
         id="desc220">Drawing</desc>
      <g
         id="g222">
        <g
           style="fill:#dc2300;stroke:none"
           id="g224">
          <path
             d="m 14073,4141 c 2340,0 4128,962 4128,2222 0,1260 -1788,2223 -4128,2223 -2340,0 -4127,-963 -4127,-2223 0,-1260 1787,-2222 4127,-2222 z m -4127,0 0,0 z m 8256,4446 0,0 z"
             id="path226" />
        </g>
        <g
           style="fill:#000000;stroke:none"
           id="g228">
          <path
             d="m 14073,4014 c 595,0 1155,61 1660,173 l -28,124 -27,124 c -489,-108 -1030,-167 -1605,-167 l 0,-127 0,-127 z"
             id="path230" />
          <path
             d="m 15733,4187 c 509,113 963,277 1342,481 l -60,112 -61,111 c -360,-194 -792,-349 -1276,-456 l 27,-124 28,-124 z"
             id="path232" />
          <path
             d="m 17075,4668 c 192,103 365,217 517,339 l -80,99 -80,99 c -140,-113 -300,-218 -478,-314 l 61,-111 60,-112 z"
             id="path234" />
          <path
             d="m 17592,5007 c 154,125 286,259 394,400 l -101,77 -101,77 c -96,-126 -214,-245 -352,-356 l 80,-99 80,-99 z"
             id="path236" />
          <path
             d="m 17986,5407 c 110,144 195,297 253,455 l -119,44 -120,43 c -49,-135 -122,-265 -216,-388 l 101,-77 101,-77 z"
             id="path238" />
          <path
             d="m 18239,5862 c 58,161 89,329 89,501 l -127,0 -127,0 c 0,-143 -25,-281 -74,-414 l 120,-43 119,-44 z"
             id="path240" />
          <path
             d="m 18328,6363 c 0,172 -31,340 -89,501 l -119,-44 -120,-43 c 49,-133 74,-271 74,-414 l 127,0 127,0 z"
             id="path242" />
          <path
             d="m 18239,6864 c -58,158 -143,311 -253,455 l -101,-77 -101,-77 c 94,-123 167,-253 216,-388 l 120,43 119,44 z"
             id="path244" />
          <path
             d="m 17986,7319 c -108,141 -240,275 -394,400 l -80,-99 -80,-99 c 138,-111 256,-230 352,-356 l 101,77 101,77 z"
             id="path246" />
          <path
             d="m 17592,7719 c -152,122 -325,236 -517,340 l -60,-112 -61,-112 c 178,-95 338,-200 478,-314 l 80,99 80,99 z"
             id="path248" />
          <path
             d="m 17075,8059 c -379,204 -833,368 -1342,481 l -28,-124 -27,-124 c 484,-107 916,-263 1276,-457 l 61,112 60,112 z"
             id="path250" />
          <path
             d="m 15733,8540 c -505,112 -1065,173 -1660,173 l 0,-127 0,-127 c 575,0 1116,-59 1605,-167 l 27,124 28,124 z"
             id="path252" />
          <path
             d="m 14073,8713 c -595,0 -1155,-61 -1659,-173 l 27,-124 27,-124 c 489,108 1030,167 1605,167 l 0,127 0,127 z"
             id="path254" />
          <path
             d="m 12414,8540 c -510,-113 -963,-277 -1342,-481 l 60,-112 60,-112 c 361,194 792,350 1276,457 l -27,124 -27,124 z"
             id="path256" />
          <path
             d="m 11072,8059 c -192,-104 -365,-218 -517,-340 l 80,-99 80,-99 c 140,114 300,219 477,314 l -60,112 -60,112 z"
             id="path258" />
          <path
             d="m 10555,7719 c -154,-125 -286,-259 -394,-400 l 101,-77 101,-77 c 96,126 214,245 352,356 l -80,99 -80,99 z"
             id="path260" />
          <path
             d="m 10161,7319 c -110,-144 -195,-297 -253,-455 l 119,-44 120,-43 c 49,135 122,265 216,388 l -101,77 -101,77 z"
             id="path262" />
          <path
             d="m 9908,6864 c -59,-161 -89,-329 -89,-501 l 127,0 127,0 c 0,143 25,281 74,414 l -120,43 -119,44 z"
             id="path264" />
          <path
             d="m 9819,6363 c 0,-172 31,-340 89,-501 l 119,44 120,43 c -49,133 -74,271 -74,414 l -127,0 -127,0 z"
             id="path266" />
          <path
             d="m 9908,5862 c 58,-158 143,-310 253,-455 l 101,77 101,77 c -94,123 -167,253 -216,388 l -120,-43 -119,-44 z"
             id="path268" />
          <path
             d="m 10161,5407 c 108,-141 240,-275 394,-400 l 80,99 80,99 c -138,111 -256,230 -352,356 l -101,-77 -101,-77 z"
             id="path270" />
          <path
             d="m 10555,5007 c 152,-122 325,-236 517,-339 l 60,112 60,111 c -177,96 -337,201 -477,314 l -80,-99 -80,-99 z"
             id="path272" />
          <path
             d="m 11072,4668 c 379,-204 832,-368 1342,-481 l 27,124 27,124 c -484,107 -915,262 -1276,456 l -60,-111 -60,-112 z"
             id="path274" />
          <path
             d="m 12414,4187 c 504,-112 1064,-173 1659,-173 l 0,127 0,127 c -575,0 -1116,59 -1605,167 l -27,-124 -27,-124 z"
             id="path276" />
          <path
             d="m 9946,4141 0,0 0,0 0,0 0,0 0,0 0,0 z"
             id="path278" />
          <path
             d="m 18202,8587 0,0 0,0 0,0 0,0 0,0 0,0 z"
             id="path280" />
        </g>
        <g
           id="g282" />
      </g>
    </g>
    <g
       id="g284">
      <desc
         id="desc286">Drawing</desc>
      <g
         id="g288">
        <g
           style="fill:#000000;stroke:none"
           id="g290">
          <path
             d="m 17038,7817 10103,3742 -44,119 -44,119 -10103,-3742 44,-119 44,-119 z"
             id="path292" />
        </g>
        <g
           id="g294" />
      </g>
    </g>
    <g
       id="g296">
      <desc
         id="desc298">Drawing</desc>
      <g
         id="g300">
        <g
           style="fill:#000000;stroke:none"
           id="g302">
          <path
             d="m 16951,4673 10833,-3881 43,120 43,120 -10833,3881 -43,-120 -43,-120 z"
             id="path304" />
        </g>
        <g
           id="g306" />
      </g>
    </g>
  </g>
</svg>
